<?xml version="1.0" encoding="utf-8"?>
<svg xmlns="http://www.w3.org/2000/svg" xmlns:xlink="http://www.w3.org/1999/xlink" version= "1.1" width="1080px" height="2110px" viewBox="0 0 1080 2110">
<rect x="0" y="0" width="1080" height="2110" fill="rgb(255,255,255)"/>
<g id="layer1">
<g style="fill:rgb(0,0,0); fill-opacity:0.9843137; stroke-linejoin: miter">
</g>
<g style="fill:rgb(255,255,255); fill-opacity:0.9843137; stroke-linejoin: miter">
<path d="M-27.178322,601.95105L552.9575,601.95154L1133.0934,601.952Q1133.0934,1282.1853,1133.0934,1962.4187Q552.9575,1962.4192,-27.178322,1962.4197Q-27.178322,1282.1853,-27.178322,601.95105"/>
</g>
<g style="fill:rgb(255,255,255); fill-opacity:0.9843137; stroke-linejoin: miter">
<path d="M-347.25504,-896.722L-347.255,-896.7215L-347.25494,-896.721L-347.255,-896.7215L-347.25504,-896.722L-347.255,-896.7215L-347.25494,-896.721Q-347.255,-896.7215,-347.25504,-896.722"/>
</g>
</g>
<g id="layer2">
<g style="fill:rgb(0,0,0); fill-opacity:1.0; stroke-linejoin: miter">
<path d="M527.84247,932.31213L527.84247,932.31213L527.84247,932.3131C527.84247,932.7683,527.5878,933.1853,527.18286,933.39325C526.7779,933.6012,526.29065,933.5651,525.9207,933.29987L525.9201,933.29944L525.91296,933.2943L525.91296,933.2943L525.9058,933.2892L525.90643,933.2896C524.4506,932.2458,522.70325,931.0151,521.7366,929.4797L521.7366,929.4797C520.73224,927.88434,520.62634,926.06915,520.5232,924.62427L520.8207,925.3375C519.5131,923.84375,518.0648,922.184,517.60425,918.6178L517.60425,918.6178C517.40283,917.0582,517.3915,915.13257,517.3784,913.2429L517.3784,913.2429C517.36395,911.1547,517.3477,909.0805,517.1194,907.3121L517.1194,907.31195C517.0984,907.14935,517.07666,906.9965,517.0522,906.84076L517.0522,906.84094C516.7835,905.13293,516.2772,903.7411,515.81885,902.4872L515.81885,902.4872C515.5005,901.6164,515.16437,900.7113,515.0323,899.87146L515.0323,899.8715C514.98444,899.56744,514.95966,899.25586,514.9733,898.9358L514.9733,898.9356C515.0794,896.4615,517.4678,894.87115,518.99445,893.776C519.53937,893.38513,520.298,893.50995,520.68884,894.0549C521.0797,894.5998,520.9549,895.3584,520.41,895.74927L520.41,895.74927C518.4963,897.1221,517.44403,898.00073,517.3995,899.0396L517.3995,899.0394C517.39404,899.166,517.40295,899.31433,517.4312,899.4941L517.4312,899.49414C517.5186,900.05005,517.75446,900.7092,518.0996,901.6533L518.0996,901.6533C518.5574,902.90546,519.1417,904.4969,519.4511,906.4635L519.4511,906.4637C519.47974,906.64575,519.50385,906.8153,519.52783,907.00116L519.52783,907.00104C519.7789,908.9451,519.79254,911.1763,519.80676,913.2261L519.80676,913.2261C519.8202,915.16473,519.8344,916.9261,520.0127,918.30676L520.0127,918.30676C520.3801,921.15204,521.4437,922.3623,522.64795,923.73804C522.82214,923.9371,522.9266,924.1875,522.94543,924.4513L522.94543,924.4513C523.05646,926.0062,523.16437,927.18945,523.7916,928.18585L523.7916,928.18585C524.4512,929.23346,525.73846,930.1811,527.3215,931.3161L527.3221,931.3165L527.3292,931.32166L527.3292,931.32166L527.33636,931.3268L525.414,932.3131L525.414,932.31213C525.414,931.64154,525.95764,931.0979,526.62823,931.0979C527.2988,931.0979,527.84247,931.64154,527.84247,932.31213 Z"/>
</g>
<g style="fill:rgb(0,0,0); fill-opacity:1.0; stroke-linejoin: miter">
<path d="M678.86993,880.7092L678.86993,880.7092L678.86993,880.7102L677.466,878.9799L682.43353,880.02576L680.92413,880.40875C682.45056,879.1114,684.3033,877.50433,687.2108,876.9086L687.21893,876.907L687.21985,876.9068L687.2118,876.90845C687.9186,876.7637,688.68445,876.6784,689.48596,876.6784L689.48596,876.6784C691.94025,876.6784,694.7692,877.48724,697.04834,879.8983L697.04834,879.8983C699.9517,882.96967,701.73645,888.42035,701.9784,894.1187L701.9784,894.1187C702.2236,899.89343,700.90216,906.0997,698.6889,912.1954L698.6889,912.1954C696.4817,918.27435,693.33057,924.3965,690.45526,928.3043L690.45526,928.3043C687.516,932.2991,684.7079,934.1825,681.0865,934.6821L681.1355,934.6747L681.1344,934.67487L681.085,934.6824C680.35913,934.7824,679.6198,934.8245,678.87524,934.8245L678.87524,934.8245C676.1237,934.8245,673.1098,934.2408,670.3147,933.7052C669.3556,933.5214,668.72705,932.5949,668.9108,931.6358C669.0946,930.6767,670.0211,930.04816,670.9802,930.23193L670.9802,930.23193C673.862,930.7841,676.5254,931.28815,678.87524,931.28815L678.87524,931.28815C679.4875,931.28815,680.0643,931.25323,680.60236,931.1791L680.553,931.1866L680.5541,931.1864L680.6031,931.17896C683.0006,930.84814,685.04236,929.6937,687.60675,926.2085L687.60675,926.2085C690.2345,922.6371,693.24164,916.8361,695.3648,910.98846L695.3648,910.98846C697.48224,905.15674,698.6643,899.42944,698.4452,894.26874L698.4452,894.26874C698.2229,889.0323,696.5754,884.54596,694.4784,882.32764L694.4784,882.32764C692.99054,880.75366,691.16296,880.2148,689.48596,880.2148L689.48596,880.2148C688.93445,880.2148,688.405,880.27386,687.9215,880.3729L687.91345,880.3746L687.91254,880.37476L687.92065,880.3731C686.0022,880.7662,684.7714,881.7799,683.2144,883.10333C682.7976,883.4576,682.2403,883.599,681.705,883.4863L681.705,883.4863L676.7375,882.4405C675.91925,882.26825,675.33356,881.5464,675.33356,880.7102L675.33356,880.7102L675.33356,880.7092C675.33356,879.73267,676.1252,878.94104,677.10175,878.94104C678.0783,878.94104,678.86993,879.73267,678.86993,880.7092 Z"/>
</g>
<g style="fill:rgb(0,0,0); fill-opacity:1.0; stroke-linejoin: miter">
<path d="M561.66614,1017.079L561.66614,1017.079L561.66614,1017.07996C561.66614,1017.2193,561.64905,1017.35815,561.61523,1017.49335L561.61523,1017.49335L558.00616,1031.9276C557.888,1032.4003,557.5731,1032.7997,557.1412,1033.0251L557.1411,1033.0251L557.1369,1033.0273L557.1369,1033.0273L557.1327,1033.0295L557.13275,1033.0295C547.4945,1038.0591,537.91064,1043.0607,526.9076,1049.7549L526.9076,1049.7549C515.84406,1056.4858,503.59164,1064.7858,496.49765,1073.2094L496.49765,1073.2094C489.53226,1081.4802,487.47247,1089.9609,485.78552,1102.8529L485.78552,1102.8529C484.09595,1115.7648,482.8153,1132.7439,481.52924,1149.8008C481.46597,1150.6398,480.79993,1151.307,479.9611,1151.3718L479.9611,1151.3718L261.91144,1168.2316L263.35413,1165.8788L263.40567,1166.0029L263.40558,1166.0028C271.905,1186.4668,280.398,1206.8954,296.7701,1236.7709L296.7701,1236.7709C313.19513,1266.7429,337.54498,1306.2146,361.93246,1345.7465L360.52588,1344.9376L412.73962,1346.2843C413.48138,1346.3035,414.1255,1346.8003,414.3324,1347.5128L414.33368,1347.5171L414.3421,1347.5464L414.34082,1347.5421C415.42474,1351.2748,416.36627,1354.4388,421.2881,1356.7417L421.28806,1356.7417C423.14777,1357.6118,425.58572,1358.3639,428.38818,1359.2236L428.38818,1359.2236C431.62607,1360.2169,435.28656,1361.3368,438.66342,1362.9169L438.6634,1362.9169C440.5513,1363.8002,442.38205,1364.8408,444.03146,1366.1102L444.0315,1366.1104C446.80328,1368.2435,448.95914,1370.9528,451.00592,1373.5125L451.0059,1373.5123C453.17157,1376.2206,455.24042,1378.7954,457.93808,1380.8715L457.93808,1380.8715C459.2703,1381.8967,460.75546,1382.798,462.47122,1383.516L462.4712,1383.516C467.20837,1385.4983,473.86615,1386.1638,481.6253,1386.1638L481.6253,1386.1638C487.94067,1386.1638,494.81677,1385.7277,501.7745,1385.2859L501.78528,1385.2853L501.7917,1385.2849C502.28586,1385.2567,502.76788,1385.4446,503.11246,1385.7999C503.45703,1386.1553,503.6301,1386.643,503.58667,1387.136L503.58667,1387.136C502.64117,1397.8729,501.6932,1408.634,498.33862,1429.0715L498.33862,1429.0715C497.9173,1431.6383,497.4684,1434.2961,496.98663,1437.1495L496.98663,1437.1497C496.45746,1440.2837,495.89072,1443.6405,495.3214,1447.109L495.3214,1447.109C492.2824,1465.624,488.93524,1488.71,488.01688,1514.6761L488.01688,1514.6761C487.47797,1529.9138,487.77454,1546.1594,488.1131,1564.6735L488.1131,1564.6735C488.55777,1588.9912,489.07327,1617.1659,487.84415,1651.9197L487.84415,1651.9199L487.8424,1651.969L487.8424,1651.9689C485.67538,1713.1702,478.09778,1794.7476,470.52728,1876.2565C470.44025,1877.1937,469.6099,1877.8829,468.67267,1877.7959C467.73544,1877.7089,467.0462,1876.8785,467.13324,1875.9413L467.13324,1875.9413C474.70715,1794.3955,482.27307,1712.9302,484.43585,1651.8483L484.43585,1651.8481L484.4376,1651.7991L484.4376,1651.7993C485.66318,1617.1454,485.14963,1589.0507,484.70502,1564.7357L484.70502,1564.7357C484.36685,1546.2445,484.06757,1529.9019,484.61032,1514.5558L484.61032,1514.5558C485.5363,1488.3744,488.9104,1465.1228,491.95776,1446.557L491.95776,1446.557C492.53064,1443.0668,493.09433,1439.728,493.62555,1436.582L493.62555,1436.5822C494.10638,1433.7343,494.5564,1431.0697,494.97498,1428.5195L494.97498,1428.5195C498.3103,1408.1995,499.24957,1397.5298,500.19116,1386.8369L501.98615,1388.688L501.97974,1388.6884L501.9905,1388.6877C495.0584,1389.1278,488.06836,1389.5725,481.6253,1389.5725L481.6253,1389.5725C473.79782,1389.5725,466.55695,1388.9208,461.1554,1386.6605L461.15536,1386.6605C459.1422,1385.8181,457.40088,1384.7594,455.85916,1383.5729L455.85916,1383.5729C452.7852,1381.2072,450.47287,1378.3038,448.34372,1375.6412L448.3437,1375.6411C446.2521,1373.0254,444.34244,1370.6509,441.9525,1368.8115L441.95255,1368.8116C440.5503,1367.7324,438.94922,1366.814,437.2188,1366.0043L437.21878,1366.0043C434.09518,1364.5427,430.6656,1363.4878,427.3885,1362.4824L427.3885,1362.4824C424.6617,1361.646,421.96603,1360.8221,419.84354,1359.8291L419.8435,1359.8291C413.49936,1356.8607,412.2006,1352.395,411.06738,1348.4926L411.0661,1348.4883L411.05768,1348.459L412.65173,1349.6918L360.438,1348.3451C359.86264,1348.3302,359.3336,1348.0261,359.0314,1347.5363L359.0314,1347.5363C334.66315,1308.0355,310.2562,1268.4729,293.78085,1238.409L293.78085,1238.409C277.3186,1208.3691,268.76898,1187.803,260.25763,1167.3102L260.25754,1167.31L260.206,1167.1859C259.99655,1166.6815,260.04153,1166.1072,260.32706,1165.6415C260.61258,1165.1758,261.10403,1164.8752,261.64868,1164.8331L261.64868,1164.8331L479.69833,1147.9734L478.1302,1149.5444C479.41367,1132.5222,480.70135,1115.4349,482.40564,1102.4105L482.40564,1102.4105C484.11206,1089.3698,486.26956,1080.0627,493.8904,1071.0135L493.8904,1071.0135C501.38318,1062.1165,514.0843,1053.5665,525.13586,1046.8428L525.13586,1046.8428C536.24554,1040.0837,545.92114,1035.0352,555.55585,1030.0076L555.5559,1030.0076L555.5601,1030.0054L555.5601,1030.0054L555.56433,1030.0032L554.6993,1031.1007L558.30835,1016.66656L558.25745,1017.07996L558.25745,1017.079C558.25745,1016.1377,559.0205,1015.37463,559.9618,1015.37463C560.9031,1015.37463,561.66614,1016.1377,561.66614,1017.079 Z"/>
</g>
<g style="fill:rgb(0,0,0); fill-opacity:1.0; stroke-linejoin: miter">
<path d="M678.3142,934.2636L678.3142,934.2636L678.3142,934.2646C678.3142,934.3073,678.3126,934.35004,678.3094,934.39264L678.3094,934.39264L676.80206,954.40234L674.6509,952.6309L674.7062,952.6157L674.7091,952.61487C675.5554,952.3839,676.621,952.0908,677.86096,952.0908L677.86096,952.0908C679.63745,952.0908,681.5499,952.68085,683.87964,954.27686L683.87964,954.2769C687.8126,956.9713,693.2842,962.7806,698.2263,969.5737L698.2263,969.5737C700.2057,972.29443,702.10706,975.18243,703.90173,977.90765L703.90173,977.9077C705.5494,980.4098,707.1069,982.7736,708.5696,984.78424L708.5696,984.78424C709.5232,986.095,710.41974,987.23267,711.2618,988.1546L711.26184,988.1546C714.6695,991.8857,717.3393,992.28064,720.3339,992.7396C720.83026,992.81573,721.2678,993.1069,721.5298,993.5353C721.79175,993.9637,721.8514,994.4858,721.6929,994.9623L721.6929,994.9623L719.421,1001.7916L717.8998,999.552C721.8279,999.7735,725.9193,1000.00806,732.3567,1002.9197L732.3567,1002.9197C734.71466,1003.9862,737.3932,1005.41534,740.7173,1007.1881L740.7173,1007.1881C746.32166,1010.1768,753.94025,1014.23975,765.48584,1019.5191L765.48584,1019.5191C772.4685,1022.71204,780.8839,1026.3484,789.64874,1030.1359L789.64874,1030.1359C799.1007,1034.2202,808.9315,1038.4683,817.75305,1042.502L817.75305,1042.502C822.36334,1044.6101,826.6801,1046.651,830.5448,1048.5907L830.5448,1048.5907C848.74164,1057.7236,856.5432,1064.456,863.20557,1079.8613L863.20557,1079.8613C869.74365,1094.9792,875.2515,1118.5206,876.68097,1138.5238L876.68097,1138.5238C878.1147,1158.5872,875.4455,1175.1023,872.81134,1191.4338L872.7872,1190.7697L872.7888,1190.7766L872.79285,1190.7941C875.0289,1200.6962,877.31287,1210.7916,877.86896,1218.0784L877.86896,1218.0784C878.1596,1221.887,877.9791,1224.922,877.80914,1227.8024L877.80914,1227.8024C877.64984,1230.5032,877.5009,1233.0588,877.7146,1236.119L877.7146,1236.119C877.87494,1238.4155,878.2404,1241.0156,878.66943,1244.0609L878.66943,1244.0609C879.2319,1248.0526,879.8915,1252.7306,880.2749,1258.223L880.2749,1258.223C880.4087,1260.1399,880.509,1262.1559,880.55994,1264.2783L880.55994,1264.2783C880.72864,1271.3082,880.3548,1279.4858,879.9891,1287.4996L879.9891,1287.4996C879.689,1294.075,879.394,1300.5488,879.39465,1306.2902L879.39465,1306.2902C879.39545,1312.9185,879.7908,1318.5936,880.1394,1323.5906L880.1394,1323.5906C880.40814,1327.4432,880.65283,1330.9392,880.6532,1334.1173L880.6532,1334.1174C880.65326,1334.7263,880.64435,1335.3281,880.6249,1335.9187L880.6249,1335.9187C880.37067,1343.6245,878.32007,1349.3918,876.3566,1354.9364L876.40356,1353.9542C878.4647,1362.2026,880.7662,1371.184,874.65857,1380.9456L874.65857,1380.9456C868.7596,1390.3738,854.9726,1400.4608,841.66394,1410.2343L842.35944,1408.8715C842.1901,1435.4177,842.0211,1461.9633,842.3115,1486.6664L842.3115,1486.6664C842.602,1511.3751,843.352,1534.26,844.10284,1557.1696L844.0769,1556.9242C849.18115,1585.3523,854.2957,1613.8501,853.57056,1668.0281L853.57056,1668.0281C852.84644,1722.1263,846.29846,1801.8698,839.75934,1881.5178C839.6824,1882.4559,838.85944,1883.154,837.9213,1883.077C836.9832,1883.0,836.28516,1882.1771,836.3621,1881.239L836.3621,1881.239C842.90533,1801.5417,849.44006,1721.933,850.16223,1667.9824L850.16223,1667.9824C850.8833,1614.1113,845.8077,1585.8516,840.7219,1557.5265C840.7074,1557.4454,840.69867,1557.3634,840.696,1557.2811L840.696,1557.2811C839.9453,1534.3772,839.19403,1511.4547,838.9031,1486.7064L838.9031,1486.7064C838.6122,1461.9612,838.78156,1435.3948,838.95087,1408.8497C838.9543,1408.311,839.2122,1407.8058,839.64636,1407.4869L839.64636,1407.4869C853.21387,1397.5234,866.30316,1387.8732,871.7689,1379.1375L871.7689,1379.1375C877.02655,1370.7344,875.1812,1363.123,873.09656,1354.7806C873.0154,1354.4558,873.0317,1354.1141,873.1435,1353.7985L873.1435,1353.7985C875.1066,1348.2546,876.983,1342.9318,877.218,1335.8064L877.218,1335.8064C877.2362,1335.2551,877.24457,1334.6956,877.2445,1334.1177L877.2445,1334.1178C877.24414,1331.0815,877.0101,1327.713,876.739,1323.8279L876.739,1323.8279C876.39056,1318.8331,875.98676,1313.0503,875.98596,1306.2906L875.98596,1306.2906C875.9853,1300.4576,876.28485,1293.8981,876.5839,1287.3444L876.5839,1287.3444C876.95123,1279.2958,877.31757,1271.2493,877.1522,1264.3601L877.1522,1264.3601C877.10254,1262.2922,877.00507,1260.3304,876.8745,1258.4603L876.8745,1258.4603C876.5003,1253.1,875.85693,1248.531,875.29407,1244.5365L875.29407,1244.5365C874.87,1241.5264,874.48456,1238.7964,874.3142,1236.3563L874.3142,1236.3563C874.08344,1233.0508,874.2475,1230.2963,874.40643,1227.6017L874.40643,1227.6017C874.5762,1224.7249,874.74146,1221.8931,874.47015,1218.3376L874.47015,1218.3376C873.93756,1211.3591,871.727,1201.549,869.4679,1191.5448L869.4719,1191.5623L869.4703,1191.5553C869.4183,1191.3256,869.41144,1191.106,869.4461,1190.8911L869.4461,1190.8911C872.08234,1174.5465,874.6833,1158.3905,873.28094,1138.7667L873.28094,1138.7667C871.8745,1119.0852,866.4401,1095.928,860.0769,1081.2144L860.0769,1081.2144C853.8377,1066.7875,846.7764,1060.5511,829.01575,1051.6371L829.01575,1051.6371C825.2064,1049.7252,820.91785,1047.6971,816.3356,1045.6018L816.3356,1045.6018C807.5454,1041.5824,797.76355,1037.3558,788.2966,1033.265L788.2966,1033.265C779.5512,1029.486,771.08105,1025.8257,764.06836,1022.6191L764.06836,1022.6191C752.4272,1017.296,744.7367,1013.1947,739.1133,1010.1958L739.1133,1010.1958C735.7547,1008.40466,733.1868,1007.03625,730.9519,1006.0254L730.9519,1006.0254C725.07556,1003.3675,721.47144,1003.16754,717.7079,1002.9553C717.178,1002.9254,716.6922,1002.6503,716.394,1002.2113C716.09576,1001.7723,716.0191,1001.2193,716.18665,1000.7157L716.18665,1000.7157L718.4585,993.88635L719.81744,996.109C716.5383,995.6064,712.93304,995.039,708.7449,990.4533L708.74493,990.4533C707.7842,989.40137,706.8052,988.1531,705.81323,986.7896L705.81323,986.7896C704.29315,984.7002,702.6922,982.2686,701.05493,979.78235L701.05493,979.7824C699.25256,977.04553,697.3944,974.22424,695.47,971.5791L695.47,971.5791C690.6162,964.9074,685.415,959.4606,681.9531,957.0889L681.9531,957.089C680.0401,955.77844,678.7878,955.4995,677.86096,955.4995L677.86096,955.4995C677.1345,955.4995,676.4785,955.66534,675.60657,955.9033L675.6095,955.90247L675.5542,955.91766C675.0173,956.06433,674.4454,955.9415,674.01807,955.5891C673.59076,955.2367,673.3614,954.69855,673.403,954.14624L673.403,954.14624L674.91034,934.13654L674.9055,934.2646L674.9055,934.2636C674.9055,933.3223,675.6686,932.55927,676.60986,932.55927C677.55115,932.55927,678.3142,933.3223,678.3142,934.2636 Z"/>
</g>
<g style="fill:rgb(0,0,0); fill-opacity:1.0; stroke-linejoin: miter">
<path d="M479.5995,1150.2319L479.5995,1150.2319L479.5995,1150.2329L477.81113,1148.5306L609.59076,1142.0256C610.342,1141.9885,611.02875,1142.4482,611.2807,1143.157L611.2807,1143.157L682.8437,1344.4491C683.0274,1344.9658,682.95123,1345.5393,682.6391,1345.9901C682.32697,1346.4409,681.81696,1346.7142,681.2687,1346.7241L681.2687,1346.7241L514.23425,1349.7504C514.02875,1349.7542,513.8242,1349.7206,513.6306,1349.6515L513.6306,1349.6515L500.30356,1344.8965C499.89667,1344.7513,499.56006,1344.457,499.36188,1344.0731L499.36188,1344.0731C496.32782,1338.1967,493.51654,1332.832,488.36972,1329.507L488.36975,1329.5071C485.23865,1327.4843,481.26193,1326.2314,478.21857,1326.2314L478.21857,1326.2314C476.142,1326.2314,474.9644,1326.7992,474.4665,1327.5087L474.46652,1327.5087C472.69778,1330.0292,475.24805,1337.1416,478.79395,1346.1869C478.99957,1346.7114,478.9327,1347.3037,478.61526,1347.7692C478.29782,1348.2346,477.77087,1348.5132,477.20746,1348.5133L477.20746,1348.5133L462.35748,1348.5157C461.81985,1348.5159,461.31372,1348.2622,460.9919,1347.8315L460.9914,1347.8308L460.9534,1347.7799L460.95392,1347.7806C456.42178,1341.7152,452.23938,1336.2163,446.18668,1333.9226L446.18668,1333.9226C443.85712,1333.0398,441.19888,1332.6174,438.71127,1332.6174L438.71127,1332.6174C434.4264,1332.6174,431.69077,1333.8243,431.0981,1334.9098L431.09814,1334.9098C430.049,1336.8313,433.55548,1341.1575,439.37576,1347.5133C439.8367,1348.0166,439.95294,1348.7465,439.6711,1349.368C439.38928,1349.9896,438.7638,1350.3833,438.08145,1350.3683L438.08145,1350.3683L410.12692,1349.755C409.18588,1349.7344,408.43973,1348.9547,408.4604,1348.0137C408.48105,1347.0726,409.26065,1346.3264,410.2017,1346.347L410.2017,1346.347L438.15622,1346.9603L436.8619,1349.8153C432.36255,1344.902,425.54956,1337.9591,428.10632,1333.2762L428.10635,1333.2762C429.73163,1330.2996,434.48126,1329.2087,438.71127,1329.2087L438.71127,1329.2087C441.55292,1329.2087,444.62784,1329.6866,447.39462,1330.7351L447.39462,1330.7351C454.5434,1333.4442,459.29514,1339.8661,463.6845,1345.7404L463.68503,1345.7411L463.72302,1345.792L462.35693,1345.107L477.2069,1345.1046L475.62042,1347.431C472.58334,1339.6837,468.551,1330.0043,471.6763,1325.5507L471.67633,1325.5507C473.1332,1323.4746,475.74094,1322.8228,478.21857,1322.8228L478.21857,1322.8228C482.0247,1322.8228,486.6343,1324.3278,490.21942,1326.6438L490.21945,1326.6439C496.25406,1330.5425,499.43326,1336.7814,502.3907,1342.5094L501.449,1341.686L514.7761,1346.441L514.1725,1346.3422L681.2069,1343.3159L679.6319,1345.591L608.0689,1144.2988L609.75885,1145.4302L477.97916,1151.9352C477.51312,1151.9581,477.05804,1151.7891,476.72006,1151.4674C476.38208,1151.1458,476.1908,1150.6995,476.1908,1150.2329L476.1908,1150.2329L476.1908,1150.2319C476.1908,1149.2906,476.95386,1148.5276,477.89514,1148.5276C478.83643,1148.5276,479.5995,1149.2906,479.5995,1150.2319 Z"/>
</g>
<g style="fill:rgb(0,0,0); fill-opacity:1.0; stroke-linejoin: miter">
<path d="M682.3373,1344.9846L682.3373,1344.9846L682.3373,1344.9856L680.23694,1343.3279L750.5359,1326.5347L749.55975,1327.1814L756.95215,1317.1481L758.1415,1319.8535C753.22974,1319.3236,748.38226,1318.8013,741.3261,1318.8013L741.3261,1318.8013C738.49994,1318.8013,735.3369,1318.8844,731.65314,1319.0859L731.6532,1319.0859C718.71954,1319.7936,699.68835,1321.95,680.5661,1324.1172C679.6308,1324.2231,678.7867,1323.551,678.68066,1322.6157C678.57465,1321.6804,679.2469,1320.8362,680.1822,1320.7302L680.1822,1320.7302C699.2601,1318.568,718.41095,1316.3967,731.4669,1315.6824L731.467,1315.6824C735.2043,1315.4779,738.43414,1315.3926,741.3261,1315.3926L741.3261,1315.3926C748.57477,1315.3926,753.5742,1315.9324,758.5071,1316.4646C759.11365,1316.53,759.639,1316.9147,759.8845,1317.4731C760.13007,1318.0316,760.0583,1318.6788,759.6964,1319.17L759.6964,1319.17L752.304,1329.2034C752.06525,1329.5275,751.7194,1329.7566,751.3279,1329.8501L751.3279,1329.8501L681.02893,1346.6433C680.52155,1346.7645,679.9865,1346.6467,679.577,1346.3235C679.16754,1346.0002,678.9286,1345.5073,678.9286,1344.9856L678.9286,1344.9856L678.9286,1344.9846C678.9286,1344.0433,679.69165,1343.2803,680.63293,1343.2803C681.5742,1343.2803,682.3373,1344.0433,682.3373,1344.9846 Z"/>
</g>
<g style="fill:rgb(0,0,0); fill-opacity:1.0; stroke-linejoin: miter">
<path d="M503.9256,1386.1975L503.9256,1386.1975L503.9256,1386.1985L503.544,1385.1238L503.5452,1385.1252L503.5452,1385.1252L503.5464,1385.1267L503.5295,1385.1062C505.66705,1387.6549,507.60986,1390.0066,513.48395,1391.287L513.48395,1391.287C518.71246,1392.4266,526.9113,1392.6915,535.63794,1392.9662L535.63794,1392.9662C537.2841,1393.0181,538.7449,1393.0638,540.3962,1393.1222L540.3962,1393.1222C550.6586,1393.4852,560.62366,1394.098,570.16705,1395.3623L570.16705,1395.3623C579.7062,1396.626,588.793,1398.5371,597.8098,1400.4325L595.773,1401.8527L599.50995,1376.4169C599.5595,1376.0797,599.709,1375.765,599.9391,1375.5137L599.9391,1375.5137C603.45465,1371.6737,606.6763,1368.1227,608.2995,1363.7205L608.2995,1363.7205C609.9354,1359.2837,609.99817,1353.86,610.0446,1348.0319C610.0521,1347.0906,610.8212,1346.3336,611.76245,1346.3411C612.7037,1346.3485,613.4607,1347.1177,613.4532,1348.059L613.4532,1348.059C613.4081,1353.7257,613.37964,1359.7959,611.49774,1364.8997L611.49774,1364.8997C609.6033,1370.0376,605.8815,1374.0708,602.45325,1377.8154L602.8824,1376.9122L599.14545,1402.348C599.0771,1402.8132,598.81964,1403.2295,598.43396,1403.4984C598.0483,1403.7673,597.5687,1403.8649,597.10864,1403.7682L597.10864,1403.7682C588.07697,1401.8696,579.1078,1399.9852,569.7194,1398.7415L569.7194,1398.7415C560.33167,1397.4978,550.48914,1396.89,540.2757,1396.5287L540.2757,1396.5287C538.637,1396.4707,537.173,1396.4249,535.53064,1396.3732L535.53064,1396.3732C526.95215,1396.1031,518.3668,1395.8401,512.758,1394.6176L512.758,1394.6176C505.82095,1393.1055,503.27036,1390.1018,500.91776,1387.2966L500.90088,1387.2761L500.8997,1387.2747L500.8997,1387.2747L500.8985,1387.2732C500.658,1386.9868,500.5169,1386.599,500.5169,1386.1985L500.5169,1386.1985L500.5169,1386.1975C500.5169,1385.2562,501.27997,1384.4932,502.22125,1384.4932C503.16254,1384.4932,503.9256,1385.2562,503.9256,1386.1975 Z"/>
</g>
<g style="fill:rgb(0,0,0); fill-opacity:1.0; stroke-linejoin: miter">
<path d="M600.4677,1399.0698L600.4677,1399.0698L600.4677,1399.0708C600.4677,1399.2655,600.4343,1399.4587,600.369,1399.6422L600.369,1399.6422L588.997,1431.5946L587.0416,1429.3551C593.57074,1427.9861,600.2856,1426.5737,607.91486,1426.5737L607.91486,1426.5737C612.5976,1426.5737,617.618,1427.1044,623.1702,1428.4828L623.1703,1428.4828C627.25714,1429.4974,631.61926,1430.969,636.31976,1432.5532L636.31976,1432.5532C642.05615,1434.4865,648.3652,1436.6115,655.4939,1438.3813L655.4939,1438.3813C663.3665,1440.3358,672.2507,1441.8615,682.46655,1442.2151L682.4665,1442.2151C684.06177,1442.2703,685.69196,1442.297,687.351,1442.297L687.351,1442.297C713.92615,1442.297,747.7773,1435.4592,770.37366,1429.7965L770.37366,1429.7965C790.92786,1424.6456,802.0192,1420.5065,811.0063,1417.1536L811.0062,1417.1536C812.52563,1416.5867,813.89215,1416.0764,815.33563,1415.5496L815.3356,1415.5496C825.30035,1411.9124,833.9922,1409.3195,842.6339,1406.7413C843.5359,1406.4723,844.4852,1406.9852,844.75433,1407.8872C845.02344,1408.7892,844.5104,1409.7386,843.6084,1410.0077L843.6084,1410.0077C834.9603,1412.5878,826.3629,1415.1532,816.5044,1418.7517L816.50433,1418.7517C815.04974,1419.2826,813.74384,1419.7704,812.1979,1420.3472L812.1978,1420.3472C803.1494,1423.7229,791.9296,1427.9086,771.2023,1433.1029L771.2023,1433.1029C748.54877,1438.78,714.3622,1445.7057,687.351,1445.7057L687.351,1445.7057C685.6598,1445.7057,683.9816,1445.6783,682.3487,1445.6218L682.34863,1445.6218C671.85583,1445.2587,662.73065,1443.6903,654.6726,1441.6897L654.6726,1441.6897C647.3929,1439.8823,640.95703,1437.7133,635.23114,1435.7834L635.23114,1435.7834C630.49243,1434.1864,626.2778,1432.7666,622.3489,1431.7911L622.34894,1431.7911C617.07336,1430.4814,612.3301,1429.9824,607.91486,1429.9824L607.91486,1429.9824C600.68726,1429.9824,594.3028,1431.3154,587.7411,1432.6913C587.1377,1432.8177,586.51306,1432.6085,586.10754,1432.1442C585.702,1431.6798,585.579,1431.0326,585.7857,1430.4518L585.7857,1430.4518L597.1577,1398.4994L597.059,1399.0708L597.059,1399.0698C597.059,1398.1285,597.8221,1397.3655,598.76337,1397.3655C599.70465,1397.3655,600.4677,1398.1285,600.4677,1399.0698 Z"/>
</g>
<g style="fill:rgb(0,0,0); fill-opacity:1.0; stroke-linejoin: miter">
<path d="M742.69934,1316.0244L742.69934,1316.0244L742.69934,1316.0254C742.69934,1316.9144,742.01587,1317.6542,741.1296,1317.7244C740.2433,1317.7946,739.4519,1317.1718,739.3119,1316.2937L739.3119,1316.2937C737.006,1301.8313,734.6891,1287.3016,733.86115,1264.4303L733.86115,1264.4303C733.03455,1241.5969,733.6903,1210.4083,737.2796,1183.0435L737.2796,1183.0435C740.87054,1155.666,747.40564,1132.0468,757.67944,1112.4832L757.67944,1112.4832C767.9474,1092.9305,781.9082,1077.5227,795.7014,1062.288C796.3332,1061.5902,797.411,1061.5367,798.10876,1062.1685C798.8065,1062.8002,798.86005,1063.878,798.2283,1064.5758L798.2283,1064.5758C784.39764,1079.8518,770.73376,1094.956,760.69727,1114.0679L760.69727,1114.0679C750.6667,1133.1685,744.21643,1156.3677,740.65936,1183.4868L740.65936,1183.4868C737.1007,1210.6184,736.4459,1241.6088,737.26764,1264.307L737.26764,1264.307C738.08795,1286.9673,740.37775,1301.3293,742.6781,1315.7571L739.29065,1316.0254L739.29065,1316.0244C739.29065,1315.0831,740.0537,1314.3201,740.995,1314.3201C741.9363,1314.3201,742.69934,1315.0831,742.69934,1316.0244 Z"/>
</g>
<g style="fill:rgb(0,0,0); fill-opacity:1.0; stroke-linejoin: miter">
<path d="M720.5516,996.9855L720.5516,996.9855L720.5516,996.98645C720.5516,997.3209,720.4531,997.648,720.26855,997.92694L720.26855,997.92694C709.50464,1014.1944,698.79443,1030.3834,692.65594,1041.1343L692.65594,1041.1343C686.5661,1051.7999,685.0132,1057.0494,683.4407,1062.342C683.309,1062.785,683.0032,1063.1556,682.59314,1063.3688L682.59314,1063.3688L645.26245,1082.7783L645.39105,1079.8281L669.1777,1094.9602C669.72833,1095.3105,670.0306,1095.9445,669.95605,1096.5928L669.956,1096.5935L669.94006,1096.7316L669.9401,1096.7308C668.7541,1107.0492,667.54224,1117.4662,662.4444,1135.1439L662.44434,1135.1439C657.3423,1152.836,648.3412,1177.8212,639.37,1202.726C639.05096,1203.6116,638.07446,1204.0707,637.1889,1203.7517C636.30334,1203.4327,635.84406,1202.4563,636.1631,1201.5707L636.1631,1201.5707C645.1501,1176.622,654.10535,1151.759,659.1692,1134.1993L659.1691,1134.1993C664.1914,1116.7836,665.37683,1106.5807,666.5538,1096.3417L666.55383,1096.341L666.56976,1096.2029L667.3481,1097.8362L643.56146,1082.7041C643.0474,1082.3771,642.747,1081.8005,642.77356,1081.1919C642.8001,1080.5833,643.14954,1080.0349,643.69006,1079.7539L643.69006,1079.7539L681.02075,1060.3444L680.1732,1061.3711C681.7961,1055.909,683.43994,1050.4006,689.69586,1039.4441L689.69586,1039.4441C695.90564,1028.5684,706.6897,1012.27155,717.4259,996.04596L717.1429,996.98645L717.1429,996.9855C717.1429,996.0442,717.90594,995.2811,718.8472,995.2811C719.7885,995.2811,720.5516,996.0442,720.5516,996.9855 Z"/>
</g>
<g style="fill:rgb(0,0,0); fill-opacity:1.0; stroke-linejoin: miter">
<path d="M540.4714,1147.3308L540.4714,1147.3308L540.4714,1147.3318L537.06744,1147.2043L537.068,1147.197L537.06964,1147.1768C538.8833,1126.3348,540.70435,1105.3988,543.066,1090.4565L543.066,1090.4565C544.7112,1080.0472,546.6179,1072.547,548.2983,1065.9355L548.2983,1065.9355C549.03656,1063.031,549.7306,1060.299,550.3397,1057.5739L550.3397,1057.574C552.3365,1048.6403,553.4797,1039.5336,554.63214,1030.3411C554.74927,1029.4071,555.6013,1028.745,556.5353,1028.862C557.46924,1028.9791,558.1315,1029.8312,558.01434,1030.7651L558.01434,1030.7651C556.8652,1039.9312,555.70447,1049.1982,553.66626,1058.3174L553.66626,1058.3175C553.0445,1061.0992,552.33795,1063.879,551.60187,1066.7751L551.60187,1066.7751C549.92554,1073.3706,548.052,1080.7441,546.4328,1090.9888L546.4328,1090.9888C544.09424,1105.7848,542.28326,1126.5834,540.4655,1147.4722L540.46716,1147.4519L540.4666,1147.4592C540.38586,1148.3885,539.6048,1149.0741,538.6931,1149.0345C537.78143,1148.995,537.0627,1148.2443,537.0627,1147.3318L537.0627,1147.3318L537.0627,1147.3308C537.0627,1146.3895,537.82574,1145.6265,538.767,1145.6265C539.7083,1145.6265,540.4714,1146.3895,540.4714,1147.3308 Z"/>
</g>
<g style="fill:rgb(0,0,0); fill-opacity:1.0; stroke-linejoin: miter">
<path d="M577.07904,1025.1324L577.07904,1025.1324L577.07904,1025.1334L576.9507,1024.4845L585.3396,1044.8572L585.33276,1044.8408L589.7267,1055.2043L587.24744,1054.4286L587.2509,1054.4264L587.2538,1054.4247C593.9463,1050.2164,600.49774,1046.0918,606.4952,1040.6887L606.4951,1040.6887C612.50525,1035.2742,617.99316,1028.5461,623.5845,1021.68555C624.17914,1020.9559,625.2527,1020.84644,625.98236,1021.4411C626.71204,1022.03577,626.8215,1023.1093,626.2268,1023.839L626.2268,1023.839C620.6722,1030.6545,615.0171,1037.5991,608.77673,1043.2212L608.7767,1043.2212C602.5265,1048.852,595.72736,1053.1228,589.06824,1057.3102L589.0711,1057.3085L589.0676,1057.3107C588.64185,1057.5782,588.1236,1057.6454,587.647,1057.4957C587.17035,1057.3461,586.7834,1056.9949,586.5884,1056.5349L586.5884,1056.5349L582.19446,1046.1714L582.1876,1046.155L573.7987,1025.7823C573.7139,1025.5765,573.67035,1025.3561,573.67035,1025.1334L573.67035,1025.1334L573.67035,1025.1324C573.67035,1024.1912,574.4334,1023.4281,575.3747,1023.4281C576.316,1023.4281,577.07904,1024.1912,577.07904,1025.1324 Z"/>
</g>
<g style="fill:rgb(0,0,0); fill-opacity:1.0; stroke-linejoin: miter">
<path d="M565.125,1029.3994L565.125,1029.3994L565.125,1029.4004C565.125,1029.5109,565.11426,1029.621,565.09296,1029.7294L565.093,1029.7291L565.0597,1029.8987L565.05963,1029.8989C562.6819,1041.9877,560.3474,1053.9384,560.2289,1068.357L560.2289,1068.357C560.10944,1082.884,562.2377,1099.9471,564.38837,1117.1658C564.4145,1117.3749,564.40155,1117.587,564.35034,1117.7914L564.35034,1117.7914L557.2313,1146.1937C557.00244,1147.1068,556.0768,1147.6614,555.16376,1147.4325C554.25073,1147.2036,553.69604,1146.278,553.9249,1145.3649L553.9249,1145.3649L561.04395,1116.9625L561.0059,1117.5881C558.8635,1100.4357,556.69867,1083.1278,556.8203,1068.329L556.8203,1068.329C556.9418,1053.556,559.33923,1041.3197,561.715,1029.241L561.71497,1029.2412L561.7483,1029.0717L561.7163,1029.4004L561.7163,1029.3994C561.7163,1028.4581,562.4794,1027.6951,563.42065,1027.6951C564.36194,1027.6951,565.125,1028.4581,565.125,1029.3994 Z"/>
</g>
<g style="fill:rgb(0,0,0); fill-opacity:1.0; stroke-linejoin: miter">
<path d="M624.8856,1026.3092L624.8856,1026.3092L624.8856,1026.3102C624.8856,1026.5145,624.8489,1026.7172,624.77716,1026.9084L624.7771,1026.9086L624.7628,1026.9467L624.7628,1026.9467L624.74854,1026.9847L624.7486,1026.9846C618.63904,1043.2821,612.51855,1059.6078,605.16187,1077.4474L605.16187,1077.4474C601.7238,1085.7844,598.0342,1094.4089,594.6052,1102.4246L594.6053,1102.4246C591.65125,1109.3302,588.89954,1115.763,586.70435,1121.0862L586.70435,1121.0862C585.9823,1122.8373,585.3252,1124.4562,584.7355,1125.9456L584.7355,1125.9456C580.29156,1137.169,579.95355,1140.3397,579.5912,1143.4806C579.48334,1144.4156,578.6378,1145.0863,577.70276,1144.9784C576.7677,1144.8705,576.0971,1144.025,576.20496,1143.09L576.20496,1143.09C576.6079,1139.5974,577.03546,1136.1332,581.56616,1124.6907L581.56616,1124.6907C582.1609,1123.1887,582.82947,1121.5415,583.5531,1119.7866L583.5531,1119.7866C585.75696,1114.4424,588.5217,1107.979,591.47125,1101.084L591.4713,1101.084C594.9006,1093.0676,598.5838,1084.4576,602.0106,1076.1478L602.0106,1076.1478C609.3435,1058.366,615.4454,1042.0907,621.5568,1025.7881L621.5569,1025.788L621.57117,1025.7499L621.57117,1025.7499L621.58545,1025.7118L621.4769,1026.3102L621.4769,1026.3092C621.4769,1025.3679,622.24,1024.6049,623.1813,1024.6049C624.12256,1024.6049,624.8856,1025.3679,624.8856,1026.3092 Z"/>
</g>
<g style="fill:rgb(0,0,0); fill-opacity:1.0; stroke-linejoin: miter">
<path d="M644.86273,1008.91766L644.86273,1008.91766L644.86273,1008.91864C644.86273,1009.1984,644.7938,1009.4739,644.6622,1009.72076L644.6622,1009.72076C634.29675,1029.1538,623.9801,1048.4998,615.1538,1070.8191L615.1538,1070.8191C606.3217,1093.1532,598.9705,1118.4916,591.592,1143.9294C591.3298,1144.8335,590.3844,1145.3538,589.4804,1145.0916C588.5764,1144.8293,588.0561,1143.884,588.3183,1142.98L588.3183,1142.98C595.68713,1117.5754,603.08057,1092.0802,611.984,1069.5657L611.984,1069.5657C620.8918,1047.0402,631.29803,1027.533,641.6546,1008.1165L641.45404,1008.91864L641.45404,1008.91766C641.45404,1007.9764,642.2171,1007.2133,643.1584,1007.2133C644.0997,1007.2133,644.86273,1007.9764,644.86273,1008.91766 Z"/>
</g>
<g style="fill:rgb(0,0,0); fill-opacity:1.0; stroke-linejoin: miter">
<path d="M558.4279,1058.9633L558.4279,1058.9633L566.6612,1054.8436C567.1691,1054.5895,567.77026,1054.605,568.26434,1054.8851C568.7584,1055.1653,569.08057,1055.6731,569.12335,1056.2395L569.12335,1056.2395L570.0945,1069.0988L569.65393,1068.0782L581.65546,1081.2303L578.7725,1081.8619L586.37103,1058.004C586.56085,1057.4081,587.06177,1056.964,587.67615,1056.847C588.2905,1056.7301,588.9196,1056.9589,589.3152,1057.4434L589.3152,1057.4434L604.9238,1076.5604L602.01337,1077.0253L615.19916,1042.8186C615.5377,1041.9403,616.5242,1041.5028,617.40247,1041.8413C618.28076,1042.1798,618.71826,1043.1664,618.3797,1044.0447L618.3797,1044.0447L605.1939,1078.2513C604.9755,1078.818,604.4721,1079.2255,603.87244,1079.3213C603.27277,1079.4171,602.6675,1079.1865,602.28345,1078.7162L602.28345,1078.7162L586.6748,1059.5991L589.61896,1059.0385L582.02045,1082.8964C581.83575,1083.4763,581.3558,1083.9137,580.7612,1084.044C580.1667,1084.1742,579.5478,1083.9775,579.1375,1083.528L579.1375,1083.528L567.136,1070.3759C566.8792,1070.0945,566.7241,1069.7352,566.69543,1069.3553L566.69543,1069.3553L565.7243,1056.4961L568.18646,1057.892L559.9532,1062.0116C559.1114,1062.4327,558.0876,1062.0919,557.6664,1061.2501C557.2452,1060.4083,557.5861,1059.3844,558.4279,1058.9633 Z"/>
</g>
<g style="fill:rgb(0,0,0); fill-opacity:1.0; stroke-linejoin: miter">
<path d="M523.2967,1394.3007L523.296,1394.3052L523.2949,1394.3129L523.2956,1394.3083C520.1097,1417.0431,516.931,1439.727,514.6414,1463.969L514.6414,1463.969C512.3523,1488.2057,510.95178,1514.0055,509.1138,1559.6727L509.1138,1559.6727C507.27567,1605.3436,505.0042,1670.7855,506.75626,1727.4535L506.75626,1727.4535C508.50775,1784.1036,514.28094,1832.0067,520.0638,1879.9829C520.17645,1880.9174,519.5102,1881.7662,518.5757,1881.8789C517.6412,1881.9916,516.7923,1881.3253,516.6796,1880.3909L516.6796,1880.3909C510.89755,1832.4208,505.106,1784.3799,503.3492,1727.5587L503.3492,1727.5587C501.59302,1670.7567,503.86987,1605.2026,505.70786,1559.5358L505.70786,1559.5358C507.54605,1513.8629,508.9495,1487.9832,511.24786,1463.6484L511.24786,1463.6484C513.5457,1439.3192,516.7353,1416.5603,519.91986,1393.8352L519.92053,1393.8307L519.92163,1393.823C520.0516,1392.8954,520.91315,1392.2456,521.84534,1392.3762C522.7775,1392.5068,523.4273,1393.3685,523.2967,1394.3007 Z"/>
</g>
<g style="fill:rgb(0,0,0); fill-opacity:1.0; stroke-linejoin: miter">
<path d="M547.76416,1396.7114L547.76416,1396.7114L547.76416,1396.7124C547.76416,1396.8041,547.7567,1396.8956,547.742,1396.9861L547.742,1396.9861C542.45703,1429.4673,537.1904,1461.8475,535.32,1491.1796L535.32,1491.1796C533.45105,1520.4891,534.9706,1546.7812,537.5816,1590.7711L537.5816,1590.7711C540.19183,1634.7478,543.8804,1696.2355,549.1677,1746.3016L549.1677,1746.3016C554.4528,1796.3464,561.3361,1834.9828,568.22906,1873.6715C568.39417,1874.5981,567.7768,1875.4833,566.8501,1875.6484C565.9234,1875.8136,565.0383,1875.196,564.8732,1874.2694L564.8732,1874.2694C557.97955,1835.5765,551.07715,1796.8378,545.77795,1746.6595L545.77795,1746.6595C540.4807,1696.4998,536.78827,1634.9352,534.1789,1590.973L534.1789,1590.973C531.57056,1547.0278,530.03345,1520.5204,531.9183,1490.9625L531.9183,1490.9625C533.8014,1461.4318,539.0992,1428.8799,544.3776,1396.4387L544.35547,1396.7124L544.35547,1396.7114C544.35547,1395.7701,545.1185,1395.0071,546.0598,1395.0071C547.0011,1395.0071,547.76416,1395.7701,547.76416,1396.7114 Z"/>
</g>
<g style="fill:rgb(0,0,0); fill-opacity:0.9843137; stroke-linejoin: miter">
</g>
<g style="fill:rgb(0,0,0); fill-opacity:1.0; stroke-linejoin: miter">
<path d="M555.536,1398.0667L555.536,1398.0667L555.536,1398.0676L555.2674,1397.1492L555.34705,1397.2737L555.3466,1397.2731C562.15283,1407.903,569.35144,1419.0902,570.27435,1428.0464L570.27435,1428.0464C570.81525,1433.295,569.2169,1437.6906,568.2835,1440.285L568.2835,1440.285C567.854,1441.4789,567.6851,1442.0011,567.6709,1442.2174L567.6709,1442.217C567.67065,1442.2203,567.67303,1442.1914,567.66766,1442.1394L567.6676,1442.1388C567.60175,1441.5001,566.9714,1441.0592,566.511,1441.0592L566.511,1441.0592C566.49207,1441.0592,566.494,1441.0593,566.47656,1441.0599L566.4998,1441.0592L566.5153,1441.0588L566.49603,1441.0594C566.4795,1441.06,566.4843,1441.06,566.4851,1441.0599L566.48254,1441.0602C568.37524,1440.8813,577.4546,1435.0963,587.4529,1428.6445C588.24384,1428.1342,589.2987,1428.3617,589.8091,1429.1526C590.31946,1429.9435,590.092,1430.9984,589.301,1431.5088L589.301,1431.5088C580.00653,1437.5063,569.79095,1444.1715,566.8031,1444.4537L566.80054,1444.454C566.7481,1444.4589,566.67993,1444.4636,566.61505,1444.466L566.59576,1444.4666L566.58026,1444.4669L566.6035,1444.4662C566.57733,1444.4672,566.538,1444.4679,566.511,1444.4679L566.511,1444.4679C565.3576,1444.4679,564.40356,1443.7173,564.27686,1442.4884L564.2768,1442.4878C564.25854,1442.31,564.2599,1442.1418,564.26953,1441.9944L564.26953,1441.994C564.3237,1441.1687,564.7414,1440.0616,565.0761,1439.1312L565.0761,1439.1312C566.00977,1436.536,567.33716,1432.7971,566.8836,1428.3958L566.8836,1428.3958C566.0642,1420.4445,559.4894,1410.0646,552.476,1399.1112L552.4756,1399.1106L552.39594,1398.9861C552.2207,1398.7124,552.1273,1398.3934,552.1273,1398.0676L552.1273,1398.0676L552.1273,1398.0667C552.1273,1397.1254,552.8904,1396.3623,553.83167,1396.3623C554.77295,1396.3623,555.536,1397.1254,555.536,1398.0667 Z"/>
</g>
<g style="fill:rgb(0,0,0); fill-opacity:1.0; stroke-linejoin: miter">
<path d="M515.5583,1843.0059L515.5583,1843.0059L515.5583,1843.0068L512.9615,1841.5548C519.9177,1837.2792,527.10187,1832.8522,534.8117,1830.5209L534.8117,1830.5209C542.52655,1828.188,550.68494,1827.9789,558.56464,1827.7673L558.6104,1827.7667L558.61334,1827.7667C559.5546,1827.7667,560.3177,1828.5298,560.3177,1829.4711C560.3177,1830.4124,559.5546,1831.1754,558.61334,1831.1754L558.61334,1831.1754L558.6104,1831.1754L558.6562,1831.1748C550.69135,1831.3887,542.99963,1831.606,535.7983,1833.7836L535.7983,1833.7836C528.5867,1835.9642,521.7827,1840.134,514.7464,1844.4589C514.2205,1844.7821,513.5609,1844.7957,513.02216,1844.4944C512.4834,1844.1931,512.1496,1843.6241,512.1496,1843.0068L512.1496,1843.0068L512.1496,1843.0059C512.1496,1842.0646,512.91266,1841.3015,513.85394,1841.3015C514.7952,1841.3015,515.5583,1842.0646,515.5583,1843.0059 Z"/>
</g>
<g style="fill:rgb(0,0,0); fill-opacity:1.0; stroke-linejoin: miter">
<path d="M636.9197,1203.0776L636.9197,1203.0776L692.4221,1187.9861C692.65924,1187.9216,692.9129,1187.9701,693.10956,1188.1174C693.3062,1188.2648,693.42395,1188.4946,693.42865,1188.7404L693.42865,1188.7404L693.96014,1216.4733C693.9674,1216.8516,693.7079,1217.1827,693.33887,1217.2662L693.33887,1217.2662L646.0631,1227.9647C645.63354,1228.0619,645.20654,1227.7926,645.1093,1227.363C645.0121,1226.9335,645.2815,1226.5065,645.71106,1226.4093L645.71106,1226.4093L692.9868,1215.7108L692.36554,1216.5038L691.83405,1188.7709L692.8406,1189.5251L637.33813,1204.6167C636.91315,1204.7323,636.475,1204.4813,636.35944,1204.0564C636.2439,1203.6315,636.4947,1203.1932,636.9197,1203.0776 Z"/>
</g>
<g style="fill:rgb(0,0,0); fill-opacity:1.0; stroke-linejoin: miter">
<path d="M637.52374,1202.838L637.52374,1202.838L637.52374,1202.839L637.4767,1202.5691L684.4094,1333.0516L683.5184,1332.5366L758.23346,1319.1428C758.66693,1319.0651,759.08136,1319.3535,759.15906,1319.787C759.23676,1320.2205,758.9483,1320.6349,758.51483,1320.7126L758.51483,1320.7126L683.79974,1334.1064C683.4169,1334.175,683.04034,1333.9575,682.9087,1333.5914L682.9087,1333.5914L635.97595,1203.1089C635.9448,1203.0223,635.9289,1202.931,635.9289,1202.839L635.9289,1202.839L635.9289,1202.838C635.9289,1202.3976,636.2859,1202.0405,636.7263,1202.0405C637.16675,1202.0405,637.52374,1202.3976,637.52374,1202.838 Z"/>
</g>
<g style="fill:rgb(0,0,0); fill-opacity:1.0; stroke-linejoin: miter">
<path d="M637.2017,1206.8746L637.2017,1206.8746L637.1144,1206.5927L637.1144,1206.5927C630.8046,1186.2202,624.5294,1165.9862,619.77704,1155.465L619.77704,1155.465C615.06036,1145.0228,611.96674,1144.4017,608.9722,1143.656C608.54486,1143.5496,608.28467,1143.1168,608.3911,1142.6895C608.49756,1142.2621,608.93024,1142.002,609.3576,1142.1084L609.3576,1142.1084C612.902,1142.9911,616.3478,1143.9985,621.2305,1154.8085L621.2305,1154.8085C626.03424,1165.4434,632.3451,1185.8032,638.6378,1206.1207L638.6378,1206.1207L638.72516,1206.4027C638.85547,1206.8234,638.62006,1207.2701,638.19934,1207.4004C637.7786,1207.5306,637.33203,1207.2953,637.2017,1206.8746 Z"/>
</g>
<g style="fill:rgb(0,0,0); fill-opacity:0.9843137; stroke-linejoin: miter">
<path d="M460.9558,1345.7318L461.35367,1347.1497Q463.12958,1353.5532,464.74246,1356.1119Q466.41287,1358.579,466.91373,1358.8064Q467.74448,1359.5339,468.74158,1359.996L469.77197,1360.4044Q470.83984,1360.753,472.0121,1360.9325Q473.15063,1361.181,479.34845,1361.4773Q482.31683,1361.8116,482.80307,1362.0356Q484.96173,1362.635,486.77777,1363.5737Q487.84192,1364.0883,491.64832,1366.296Q492.0369,1366.5546,493.73288,1367.2373Q495.77954,1368.0844,499.80557,1368.1395Q491.22635,1360.6221,487.51093,1356.7626Q483.69302,1352.921,477.2057,1345.0359Q471.49783,1348.097,468.80377,1348.0745Q465.6778,1348.2069,460.9558,1345.7318"/>
</g>
<g style="fill:rgb(0,0,0); fill-opacity:0.9843137; stroke-linejoin: miter">
<path d="M438.39124,1347.2653L439.53543,1348.6289Q447.09683,1357.7014,450.97528,1361.6996Q454.51944,1365.4163,458.94257,1368.3644Q455.12134,1366.3066,451.66693,1364.7429Q447.8105,1363.1523,446.66226,1363.15Q445.58047,1362.9543,444.3097,1363.37Q443.75427,1363.5164,441.22443,1365.1492Q439.75217,1365.7897,439.29697,1365.76Q437.40186,1366.002,434.6641,1365.0168Q428.80118,1362.7981,420.51205,1357.9934L416.46857,1355.6989L415.04788,1354.0227Q411.95145,1350.2924,411.92532,1348.9113Q411.8476,1348.3314,412.0902,1347.8822L412.4289,1347.4723Q412.92584,1347.0565,413.85315,1346.8201Q415.20413,1346.3616,419.82446,1346.4049L438.39124,1347.2653"/>
</g>
<g style="fill:rgb(0,0,0); fill-opacity:0.9843137; stroke-linejoin: miter">
<path d="M499.79727,1342.9247L519.74915,1355.7183L555.3007,1361.0815Q557.7994,1355.5402,561.28564,1353.2859Q562.88855,1352.3226,564.95886,1351.8223Q565.1437,1351.6074,572.90314,1350.4792Q573.42596,1350.4308,574.96436,1349.9078Q576.8595,1349.293,577.91345,1346.9652Q569.4154,1345.6816,556.9147,1345.7533Q546.8334,1345.7537,514.04626,1347.4109L499.79727,1342.9247"/>
</g>
<g style="fill:rgb(0,0,0); fill-opacity:0.9843137; stroke-linejoin: miter">
<path d="M558.0295,1407.6742L559.05884,1409.9452Q567.0511,1428.1555,570.82196,1430.6255Q571.92755,1431.4944,573.6816,1431.4269Q573.87024,1431.4387,574.815,1431.2299Q577.8291,1430.3071,578.1632,1430.3184Q579.3114,1430.1216,580.7859,1430.1802Q583.8024,1430.3304,588.6846,1431.5344L566.43976,1442.7964Q565.07104,1441.3021,565.0768,1439.8108Q565.1784,1438.6853,565.3457,1438.3696L566.76776,1435.0665Q567.51025,1432.9615,567.547,1432.3779Q567.734,1431.3794,567.7471,1430.2278L567.6993,1429.0339Q567.597,1427.799,567.22644,1426.3917Q566.86957,1424.4077,564.0301,1418.5072Q561.34235,1413.2887,558.0295,1407.6742"/>
</g>
<g style="fill:rgb(0,0,0); fill-opacity:0.9843137; stroke-linejoin: miter">
</g>
<g style="fill:rgb(0,0,0); fill-opacity:0.9843137; stroke-linejoin: miter">
<path d="M464.0908,1248.7527L464.95773,1248.6107Q471.74374,1247.4401,475.25946,1247.6392Q479.83102,1247.8428,481.48135,1249.7034Q481.97195,1250.691,481.81442,1250.9661Q481.76282,1251.4358,481.56494,1251.9491Q480.29678,1254.6016,480.1505,1255.1104Q479.7748,1256.1421,480.20444,1256.9531Q480.20847,1257.1698,481.31848,1258.0892L485.05246,1260.6139Q486.70764,1262.0269,486.96335,1262.4639Q488.79883,1264.7188,489.32397,1267.2595Q489.51385,1269.2277,489.27472,1269.5089Q489.0836,1270.1862,488.61887,1270.7069Q487.51575,1271.8436,485.20407,1272.2214Q483.0513,1272.7172,476.0007,1272.5034Q474.09042,1272.9979,472.42038,1273.0597Q470.58444,1273.1045,468.61862,1272.6646Q464.3873,1271.6488,461.58026,1269.9362Q459.6122,1268.9429,456.74716,1265.9142Q453.59863,1262.3369,450.89062,1256.567Q448.84814,1251.5886,449.80505,1249.9738Q450.31708,1248.3768,453.62686,1247.9921Q455.76706,1247.6073,464.0908,1248.7527"/>
</g>
<g style="fill:rgb(0,0,0); fill-opacity:0.9843137; stroke-linejoin: miter">
<path d="M465.24405,1246.3826L465.6131,1245.9434Q467.68488,1243.5162,468.37955,1242.1404L468.56363,1241.7512Q468.73386,1241.3528,468.81143,1241.0314Q468.97708,1240.3529,468.88174,1239.8271Q468.7864,1239.3014,468.45044,1239.0322Q468.11063,1238.7638,467.56604,1238.853Q466.21045,1239.1809,464.83228,1240.7217Q464.20312,1241.4475,463.92822,1242.2101L463.8296,1242.5808Q463.7606,1242.9482,463.79037,1243.3047Q463.85983,1244.0166,464.20593,1244.6981Q464.43832,1245.2122,465.24405,1246.3826"/>
</g>
<g style="fill:rgb(0,0,0); fill-opacity:0.9843137; stroke-linejoin: miter">
</g>
<g style="fill:rgb(0,0,0); fill-opacity:0.9843137; stroke-linejoin: miter">
<path d="M680.70734,891.09186L681.2997,890.21014Q683.6496,886.5303,686.15533,884.07556Q688.25024,882.2817,689.72003,882.16766Q691.9552,881.7609,694.137,883.50995Q695.7733,884.81964,696.9662,887.90125Q698.0939,890.9393,698.20734,895.15424Q698.1655,898.7298,697.98975,899.5582Q697.80914,901.0993,697.49384,902.69904Q695.1554,913.195,691.1536,919.3635Q688.71686,922.89716,686.98553,923.4882Q685.1677,924.1476,685.006,922.0436Q685.0346,920.86786,686.0654,919.83057L689.86285,917.14777Q691.1861,916.004,691.4146,915.6414Q692.91144,913.85626,693.8348,910.9821Q694.4419,909.0721,694.6918,906.75073Q694.8141,905.59186,694.83185,904.34106L694.8212,903.0715Q694.7452,900.4553,694.2295,897.8807Q693.48846,894.7906,693.2082,894.3297Q692.7852,893.24695,692.2521,892.3719L691.69135,891.5652Q690.7039,890.25134,689.0341,889.7683Q686.7043,888.957,680.70734,891.09186"/>
</g>
<g style="fill:rgb(0,0,0); fill-opacity:0.9843137; stroke-linejoin: miter">
<path d="M677.6483,897.5298L676.341,904.2105Q677.52704,907.5474,677.5325,909.5322Q677.6428,911.4605,676.6885,915.9493Q679.9314,915.3585,681.61664,915.17096Q682.7782,915.0579,682.9471,915.0669Q685.4137,915.09644,685.3426,915.0386Q686.18634,914.9191,686.7511,914.631Q687.87634,914.06726,688.6239,913.37775Q689.0462,913.00586,689.4383,912.5514L689.81445,912.0771Q690.17896,911.5825,690.4636,911.0102L690.72003,910.4191Q690.95233,909.809,691.05524,909.12585Q691.15375,908.4392,691.1162,907.70355Q691.1676,907.33264,690.747,905.4989Q690.09393,903.2347,688.8395,901.94696Q688.0139,901.1521,687.0276,901.0672Q686.54285,901.01636,686.0443,901.06177Q683.80524,901.3724,683.4755,901.3286Q683.05927,901.38904,681.9801,901.0289Q680.61206,900.62616,677.6483,897.5298"/>
</g>
<g style="fill:rgb(0,0,0); fill-opacity:0.9843137; stroke-linejoin: miter">
<path d="M523.1455,921.8523L523.15027,921.2334Q523.21576,915.7922,522.8833,910.25684Q522.5175,904.3589,522.01685,902.5478Q521.8832,902.04987,521.73035,901.766L521.57184,901.5207Q521.4081,901.3215,521.22015,901.247Q520.97345,901.1364,520.0992,901.1333Q519.8359,901.1102,519.5365,901.0034Q519.4252,900.99,518.7845,900.60785Q517.2279,899.4885,517.011,899.4558Q516.7033,899.33746,516.69275,899.7086L516.7271,900.0042Q516.796,900.3575,516.9652,900.8925L518.1088,904.2763Q518.3641,905.05206,518.5878,905.83856Q519.09,907.7767,519.0964,908.1023L519.1883,908.7998Q519.2609,909.48175,519.2792,910.1015Q519.3216,910.8753,519.2117,913.26495Q519.2008,913.69995,519.225,914.074Q519.2122,914.29144,519.4,915.07684Q519.5807,915.66724,519.8813,916.1724Q521.1049,917.91016,523.1455,921.8523"/>
</g>
<g style="fill:rgb(0,0,0); fill-opacity:0.9843137; stroke-linejoin: miter">
<path d="M583.35236,939.8602L583.83,939.51483Q585.2389,938.45996,586.86505,937.57294Q588.281,936.88074,588.62695,936.79083Q589.254,936.5608,589.94745,936.382Q590.6429,936.20483,591.40466,936.07886L592.18005,935.9634Q592.9706,935.85956,593.8093,935.793Q595.89417,935.6174,600.0186,935.5882Q596.8589,936.5381,594.35834,937.1372Q594.0433,937.25024,588.0784,938.46045Q586.85724,938.7299,586.68854,938.7798Q584.8488,939.24585,583.35236,939.8602"/>
</g>
<g style="fill:rgb(0,0,0); fill-opacity:0.9843137; stroke-linejoin: miter">
<path d="M571.41144,940.30054L571.09485,940.02075Q570.15594,939.1611,569.1183,938.48376Q568.76874,938.2648,568.3972,938.08624L568.01886,937.9204Q567.70105,937.7809,567.08606,937.6375Q566.237,937.44495,564.8721,937.5095Q563.8999,937.53986,561.44696,937.9508Q562.8929,938.17145,563.42816,938.22253Q564.089,938.2898,564.23535,938.29724Q564.48773,938.32007,566.0132,938.39636Q566.322,938.41547,566.63245,938.4448Q567.25543,938.5008,567.8582,938.63074Q568.7556,938.83813,569.56604,939.2455Q570.2465,939.5732,571.41144,940.30054"/>
</g>
<g style="fill:rgb(0,0,0); fill-opacity:0.9843137; stroke-linejoin: miter">
<path d="M562.7284,925.15027L562.1853,925.73456Q560.5076,927.4969,559.2648,929.1749Q558.8666,929.73114,558.565,930.2687L558.29364,930.80035Q558.04944,931.3267,557.9381,931.8274L557.86395,932.32086L557.85626,932.80145L557.90894,933.2703Q557.9918,933.73334,558.17126,934.1777Q558.59576,935.29315,560.1038,937.15704Q557.98773,935.2161,557.6761,934.4733Q557.468,934.1146,557.34174,933.7361L557.2405,933.35144L557.18915,932.9547Q557.1659,932.5504,557.2421,932.12585Q557.50073,930.55096,559.15436,928.407Q560.0158,927.3359,560.8365,926.6238Q561.5226,926.00934,562.7284,925.15027"/>
</g>
<g style="fill:rgb(0,0,0); fill-opacity:0.9843137; stroke-linejoin: miter">
<path d="M598.0649,920.9461L598.7275,921.6826Q600.7673,923.91425,602.33984,925.94763Q603.5194,927.5867,603.62036,927.8572Q603.9618,928.45746,604.16046,928.99713Q604.35486,929.53503,604.40643,930.0123L604.4289,930.4773Q604.4188,930.92847,604.305,931.3356Q604.0463,932.3644,602.78143,933.8772Q603.6641,932.9719,604.34875,931.99677Q604.7929,931.34235,605.0024,930.6049Q605.1034,930.2349,605.1238,929.8364L605.1213,929.4302Q605.06757,928.59656,604.7189,927.705Q603.9835,925.87787,602.52277,924.35016Q600.9193,922.70667,598.0649,920.9461"/>
</g>
<g style="fill:rgb(0,0,0); fill-opacity:0.9843137; stroke-linejoin: miter">
<path d="M606.4717,923.65137L607.8802,924.574Q615.6853,929.65094,619.7847,932.8447Q624.5022,936.5045,627.48834,940.05383Q630.4689,943.6025,631.9135,946.9112Q633.1325,949.4101,634.3171,954.9338Q631.36194,947.49896,626.41113,942.1386Q622.08014,937.07135,606.4717,923.65137"/>
</g>
<g style="fill:rgb(0,0,0); fill-opacity:0.9843137; stroke-linejoin: miter">
<path d="M553.63196,933.96814L552.63824,935.1475Q545.9424,942.9504,543.89124,946.85974Q543.44855,947.72095,543.1739,948.4851L542.93365,949.22943Q542.7315,949.9517,542.6516,950.60345Q542.42126,952.2504,542.94745,954.6717Q543.41595,951.06714,545.34814,947.4551Q546.97736,944.166,553.63196,933.96814"/>
</g>
</g>
<g id="layer3">
<g style="fill:rgb(255,255,255); fill-opacity:0.9843137; stroke-linejoin: miter">
<path d="M629.1038,890.02856L628.29126,890.162Q620.49023,891.48193,605.2546,893.71063Q605.8127,892.4275,606.27026,891.8053Q606.7922,891.042,607.7004,890.51636Q608.1249,890.2353,609.4889,889.80945Q610.7053,889.4735,612.03815,889.2091Q614.3784,888.2961,615.4155,888.1745Q617.6075,887.7793,620.63916,888.2529Q623.5649,888.6831,629.1038,890.02856"/>
</g>
<g style="fill:rgb(255,255,255); fill-opacity:0.9843137; stroke-linejoin: miter">
<path d="M541.56525,898.2489L541.87994,898.2545Q544.7746,898.31757,548.6608,898.2784Q551.9501,898.24994,562.3141,898.03656Q562.894,896.88135,561.33795,896.3166Q560.7635,896.08875,559.96765,895.86993Q558.7565,895.54254,557.3585,895.2228Q556.6746,894.9666,555.9091,894.772Q555.1437,894.5773,554.13367,894.567Q552.5035,894.5462,549.85394,895.3299Q547.05005,896.1488,541.56525,898.2489"/>
</g>
<g style="fill:rgb(0,0,0); fill-opacity:0.9843137; stroke-linejoin: miter">
<path d="M617.6236,887.99457Q616.3021,887.99786,615.26306,888.2019Q613.9387,888.4389,612.03815,889.2091Q611.5212,889.31165,611.0217,889.4249C611.0334,889.43866,611.0333,889.45233,611.0333,889.466C611.0333,890.6509,611.33813,891.7645,611.8736,892.73285Q619.247,891.63184,624.41064,890.8009C624.5094,890.36865,624.5547,889.9226,624.5547,889.466C624.5547,889.3037,624.54895,889.14276,624.5377,888.9834Q624.5071,888.9768,624.4766,888.9702Q621.2416,888.2735,619.8229,888.1439Q619.02423,888.0475,618.3118,888.01245L617.6236,887.99457 Z"/>
</g>
<g style="fill:rgb(0,0,0); fill-opacity:0.9843137; stroke-linejoin: miter">
<path d="M554.1006,894.56586Q553.22015,894.56586,552.05054,894.7839Q551.78033,894.8026,549.85394,895.3299Q549.2465,895.50726,548.5133,895.7448C548.7861,896.6781,549.18304,897.5313,549.6856,898.2673Q552.7194,898.22906,559.357,898.0965C559.7758,897.4635,560.10767,896.75104,560.3462,895.98Q560.1667,895.9247,559.96765,895.87Q558.7565,895.54254,557.3585,895.2228Q556.7016,894.9779,555.9727,894.7873Q555.24384,894.5967,554.29926,894.5687Q554.20184,894.56586,554.1006,894.56586 Z"/>
</g>
</g>
<g id="layer4">
<g style="fill:rgb(0,0,0); fill-opacity:0.9843137; stroke-linejoin: miter">
<path d="M604.90265,868.46356L603.4928,868.724Q599.1609,869.4718,595.7505,870.5204Q594.6478,870.8811,593.74994,871.30865L592.9161,871.757Q592.1398,872.22424,591.6451,872.7834Q589.30365,874.90155,593.1323,881.91656L600.29,873.80005L594.4784,881.1915L604.23975,874.86365L596.66406,880.5266L611.8607,875.3166L600.68976,879.6535Q608.9628,879.1915,613.38983,879.2871Q617.7082,879.3099,623.88794,880.0053Q629.68604,880.7042,633.6128,881.66144Q637.77234,882.70374,640.8502,884.3143Q639.5766,877.0959,635.5754,873.4326Q631.97,870.0977,625.10657,869.3879Q618.8828,868.72174,607.3195,869.1589L600.5579,875.7337L605.4596,869.3131Q601.17694,871.02985,599.39185,872.807Q597.54315,874.4201,594.5582,879.4837Q597.6109,874.3181,599.35443,872.5545Q601.0592,870.6446,604.90265,868.46356"/>
</g>
<g style="fill:rgb(0,0,0); fill-opacity:0.9843137; stroke-linejoin: miter">
<path d="M592.56244,869.8947L592.0861,870.36304Q590.60236,871.7619,589.61145,873.2168Q589.29944,873.70386,589.0969,874.2033L588.92865,874.7067L588.8288,875.2179L588.8043,875.7376L588.8597,876.2664L588.99036,876.8038L589.18945,877.34894Q589.42285,877.89795,589.76575,878.4595Q590.59564,879.8601,592.93286,882.47705Q591.3487,880.11273,590.78156,878.80023Q590.5474,878.2752,590.3864,877.7505L590.2483,877.22577L590.1559,876.70123L590.1138,876.1769L590.125,875.65265L590.1866,875.12866L590.2938,874.6048Q590.42395,874.08105,590.62726,873.55756Q591.1172,872.24866,592.56244,869.8947"/>
</g>
<g style="fill:rgb(0,0,0); fill-opacity:0.9843137; stroke-linejoin: miter">
</g>
<g style="fill:rgb(0,0,0); fill-opacity:0.9843137; stroke-linejoin: miter">
<path d="M563.7672,883.5726L563.49884,882.75195Q562.299,879.0466,561.28845,877.54156Q560.19885,875.65906,558.0991,874.91595Q555.5818,874.1163,550.51886,874.832L558.77344,881.2195L549.33435,874.94305Q544.55255,875.2016,540.2036,875.7926Q537.33105,876.2071,534.9714,877.0157Q532.62244,877.8324,531.0002,879.2074Q528.32635,881.0851,525.50714,888.09326L540.883,882.4842L527.07275,889.0439Q535.9266,885.91095,541.19855,885.1669Q546.31964,884.276,558.25214,884.13873L552.12885,879.27637L560.10205,884.65027L555.15283,880.42883L561.9306,885.1753Q561.0969,881.32947,559.93304,879.9269Q558.90247,878.43134,555.3469,876.4805Q559.0219,878.1064,560.38275,879.32446Q561.8287,880.4703,563.7672,883.5726"/>
</g>
<g style="fill:rgb(0,0,0); fill-opacity:0.9843137; stroke-linejoin: miter">
<path d="M556.3451,872.2784L556.9759,872.7192Q561.2086,875.5641,562.6935,877.75574Q563.01605,878.2439,563.2447,878.7465Q563.4049,878.9908,563.7619,880.2803Q564.0783,881.576,564.12164,883.9893Q564.4957,880.9835,564.32495,879.48096Q564.2655,878.876,564.1175,878.3102L563.9419,877.7566Q563.7414,877.214,563.41925,876.7252Q563.0934,876.23804,562.6458,875.8047L562.1734,875.3824Q561.6733,874.9722,561.0847,874.60126Q559.6353,873.66406,556.3451,872.2784"/>
</g>
<g style="fill:rgb(0,0,0); fill-opacity:0.9843137; stroke-linejoin: miter">
<path d="M520.26575,885.5259L523.27386,883.6312L521.4119,863.36664Q521.3715,857.12604,522.9481,852.92725Q532.13074,831.7819,544.90247,820.4283Q552.65515,822.23376,558.1184,821.0119Q562.6575,820.1376,572.2833,814.01025L564.23615,819.60315Q578.04504,819.3231,586.3765,817.6058Q593.07544,816.1014,601.21265,812.6322L599.03284,808.926Q601.342,813.1636,604.6681,813.7833Q619.3591,814.2901,629.8705,817.7335Q642.84106,821.6592,647.09674,824.36804Q647.89557,824.85425,648.9592,826.3291L654.3187,834.9498L658.277,833.6014L654.8876,835.5946Q658.01385,842.46014,665.50134,855.27795L671.9339,869.3589L665.73145,858.0429Q664.99854,862.2644,665.1608,875.1854Q665.3396,886.4021,666.1979,911.0272L672.88654,926.7345L673.413,912.8757Q671.7827,908.66394,671.99835,903.517Q672.1947,897.5695,673.532,889.5403Q674.59705,879.88605,681.2082,881.7694Q682.0357,875.6221,682.3074,872.1483Q683.71545,859.27515,679.05554,846.4446Q659.8246,803.50543,656.29913,801.65Q653.4352,798.1351,649.85645,795.7528Q647.7309,793.9864,632.0275,786.63434Q629.2698,785.0612,621.51416,778.03864Q619.1688,776.3924,617.4718,776.0065Q612.21497,774.4987,600.4356,778.04333Q592.5525,776.5126,586.6428,777.05194Q579.6533,777.6434,572.97205,779.05756Q553.4971,782.9104,546.45874,787.4967Q541.8944,786.30743,539.2576,787.39355Q534.218,789.55896,530.87744,793.4837Q524.20123,799.3262,527.9577,810.4143Q522.2013,813.3729,521.0087,816.7887L518.57477,830.3284L515.0627,840.3449L517.13434,864.8002Q517.7365,870.36194,520.26575,885.5259"/>
</g>
<g style="fill:rgb(0,0,0); fill-opacity:0.9843137; stroke-linejoin: miter">
<path d="M604.2852,892.97723L604.818,892.55835Q607.6949,890.22217,610.3183,889.2169Q612.1197,888.5709,613.04645,888.4147Q614.84265,888.03766,616.8285,887.89185Q621.3495,887.577,624.9567,888.294Q627.4055,888.70746,631.4501,890.59515Q629.91034,890.6106,628.5566,890.39624Q627.548,890.21814,627.28357,890.14496Q623.8961,889.2708,623.345,889.18567Q622.6891,889.0508,621.9841,888.94446L621.26733,888.8493Q619.11536,888.59485,616.6908,888.81177Q612.82935,889.1776,609.72363,890.2391Q606.9323,891.22253,604.2852,892.97723"/>
</g>
<g style="fill:rgb(0,0,0); fill-opacity:0.9843137; stroke-linejoin: miter">
<path d="M604.7415,887.9779L605.39185,887.6591Q608.93756,885.8761,611.6543,885.1819Q613.2696,884.7693,614.82776,884.6061Q616.4509,884.429,618.1117,884.4303Q622.17523,884.46246,624.78345,885.26465Q626.76624,885.77893,629.64655,887.72784Q625.94507,885.87067,623.80505,885.4626Q621.40753,884.9074,618.0853,884.95514Q616.4792,884.98145,614.9046,885.1447Q613.4732,885.27844,611.6466,885.6483Q610.4911,885.86066,608.2733,886.59174Q606.43286,887.2481,604.7415,887.9779"/>
</g>
<g style="fill:rgb(0,0,0); fill-opacity:0.9843137; stroke-linejoin: miter">
<path d="M563.222,896.96747L562.47284,896.6359Q559.1045,895.13446,557.10504,894.70245Q556.3095,894.5163,555.4875,894.41315L554.6574,894.33545L553.6891,894.30914L552.8134,894.34485L551.92596,894.4319L551.033,894.5642Q550.1373,894.7191,549.25653,894.9402Q547.48206,895.39453,545.9212,895.96783Q541.83167,897.4429,539.14484,899.1564Q539.92645,899.3148,540.8904,899.0287Q541.5204,898.84894,542.1931,898.5803L546.0196,897.03516Q547.6167,896.446,547.9584,896.35333Q550.0011,895.66144,552.7709,895.3383Q555.21326,895.0841,557.5708,895.4504Q558.7524,895.6403,559.8826,895.9438Q561.574,896.4078,563.222,896.96747"/>
</g>
<g style="fill:rgb(0,0,0); fill-opacity:0.9843137; stroke-linejoin: miter">
<path d="M536.5368,898.2921L536.8977,897.9165Q539.7355,894.9035,542.52826,893.623Q546.73126,891.5757,551.86273,890.7425Q555.6292,890.2272,558.1111,891.0062Q559.30975,891.353,560.6382,892.2135Q561.66876,892.8803,563.29724,894.3412Q562.22205,893.41895,560.8759,892.6469Q559.66174,892.0549,559.3266,891.9876Q558.7516,891.80035,558.0763,891.6687Q556.7178,891.4079,554.98773,891.40875Q552.9653,891.4081,550.7167,891.7595Q546.89734,892.35516,543.66583,893.9111Q540.6762,895.3394,536.5368,898.2921"/>
</g>
<g style="fill:rgb(0,0,0); fill-opacity:0.9843137; stroke-linejoin: miter">
<path d="M551.7582,946.0101L550.8989,946.4529Q540.945,950.92596,541.41473,956.8343Q541.43207,960.82996,546.0562,965.02734L547.8289,958.1538Q546.1713,963.2157,546.5521,964.4988Q546.69104,965.448,547.3534,965.9702Q547.45636,966.1836,550.01666,967.43134Q550.7828,968.0466,550.7859,968.2719Q551.2294,968.66425,550.59766,971.9864Q552.6434,969.89325,553.7721,965.67004Q554.4602,964.7606,552.54816,958.866Q552.25085,958.0896,553.473,956.60065Q554.92725,955.146,559.3213,953.19385Q565.23145,954.6191,568.8092,952.71094Q572.4275,950.92865,578.18677,945.7789L570.6027,952.385Q575.2983,951.0762,577.1493,949.99475Q579.089,948.9895,581.9752,946.12494Q584.4128,949.4807,586.18335,950.67773Q587.8555,951.9606,592.3031,953.56396L583.9314,945.912Q591.65857,953.15466,595.86566,954.1927Q597.9163,954.7647,600.6856,954.3333Q602.0682,954.11,603.684,953.65326L609.42664,951.8786Q612.18274,951.08374,612.7296,950.9956Q616.44257,950.23016,618.09186,950.51544Q622.7117,950.8304,627.52277,957.9152Q631.1645,949.30707,630.04236,945.78534Q628.8753,943.0872,623.93823,941.58276L627.52893,948.4486Q624.55005,942.225,620.1453,940.86914Q619.3071,940.6744,617.6276,940.9141L616.08954,941.2519L611.0696,942.67004Q609.1569,943.1397,606.894,943.14374Q605.4073,943.2048,601.9314,942.69293L592.27106,940.8247Q590.3585,940.548,588.7211,940.6472Q587.2192,940.7849,586.4208,941.1153Q586.29095,941.0135,582.68823,943.1Q581.82544,943.54266,580.82336,943.5666Q579.61865,943.42175,579.27997,943.19666L574.5181,940.6616Q573.1909,940.2047,572.3732,940.3821Q570.7268,940.684,569.1937,941.895Q564.38336,946.03485,560.8472,948.7238L566.73376,942.8839Q557.89105,945.9763,551.7582,946.0101"/>
</g>
<g style="fill:rgb(0,0,0); fill-opacity:0.9843137; stroke-linejoin: miter">
<path d="M571.7949,976.35175L571.2351,976.6021Q566.6836,978.59204,566.4394,979.9432Q565.9629,981.4279,567.4709,983.95776L569.58875,980.74316Q568.22656,982.9483,567.89264,983.9826Q567.414,985.2589,568.04297,986.03577Q568.50793,986.5313,569.3862,986.8638L572.8602,988.03186Q573.1286,988.11,574.3018,988.7017Q575.913,989.56757,578.1291,991.3056L582.6021,983.0929L578.3396,991.82623Q579.88855,990.7984,580.899,989.5009Q581.86725,988.3434,584.2754,984.462L581.0349,990.3889Q582.508,991.6065,583.4675,991.1166Q583.8829,990.95557,584.49554,990.26556L586.46643,987.7136Q587.0878,987.0503,587.17365,987.081Q587.39685,986.9635,587.6753,987.04913Q588.58997,987.4969,588.6739,987.4695Q588.97876,987.5482,589.4216,987.45825Q590.11804,987.374,591.63824,986.1147Q593.8694,984.3541,601.27155,975.8774Q594.47687,978.17084,586.98846,979.3238L593.71606,976.0786Q587.94965,977.32385,585.0884,977.769Q581.14954,978.3439,579.8757,978.29156Q575.86456,978.39386,571.7949,976.35175"/>
</g>
<g style="fill:rgb(0,0,0); fill-opacity:0.9843137; stroke-linejoin: miter">
<path d="M525.1858,909.2028L525.32275,913.84625Q526.3848,937.48804,523.41736,945.9396L523.7335,949.50433L526.0526,943.9588Q524.51385,949.4078,524.4587,951.60583L525.3085,960.47107Q525.05835,963.8691,521.6,967.97894Q525.1687,975.8402,531.48505,976.3117L524.9712,975.9402Q526.58716,978.5922,527.5431,979.0293Q527.89636,979.5209,531.02515,979.51245Q531.5468,979.6068,531.88385,980.01086L533.2431,986.2832Q533.0845,986.519,535.80365,989.2027Q535.678,989.6425,535.3666,989.7262Q531.2232,991.31757,531.06464,991.6005Q529.82745,992.51807,529.79205,992.8091Q528.7549,993.7285,530.42334,999.7078Q530.3891,1000.60913,527.87244,1000.0081Q536.88104,1004.26587,540.24414,1002.37585Q537.64154,1005.0602,537.794,1006.002Q537.1809,1006.4997,541.20374,1009.8207Q541.8386,1010.9615,541.7914,1011.3027Q542.10156,1013.8914,539.8019,1019.3591Q544.39453,1015.8996,551.7218,1016.8421Q548.27264,1021.1062,546.6803,1020.88513Q545.21783,1020.9598,543.18616,1015.89484Q543.9224,1020.04626,544.6902,1021.01556Q545.9237,1022.79913,546.99817,1023.1305L554.76624,1025.7107Q555.5445,1026.0138,558.65137,1030.5806L560.73193,1032.2539Q568.03235,1035.6365,573.58636,1034.5747Q576.8464,1033.9564,574.95807,1028.317Q577.4657,1035.8793,585.98047,1036.6768Q589.8659,1036.9033,593.4844,1035.8687Q609.9148,1029.6188,611.78894,1029.5588Q613.6919,1029.1245,615.673,1028.8813Q630.6889,1028.0562,632.341,1027.3313Q634.921,1027.0967,637.9676,1023.7211Q638.75464,1022.6563,639.3906,1021.37134Q643.66846,1010.3237,645.7755,1007.14166Q646.21326,1005.2844,663.16046,983.1455Q666.4281,977.9598,667.4906,974.47845Q669.6427,968.20416,671.5388,957.1455Q673.36633,941.13354,672.51355,922.271L672.2134,913.3387L667.21967,889.97894L665.3163,918.59625L668.0591,932.9687L664.0687,921.38513Q659.8456,938.2235,659.5386,943.9183Q658.90955,950.09924,661.26074,957.01154Q656.8064,957.15625,638.8376,951.8203L649.7601,964.6014L637.20844,952.36993Q634.549,963.7018,631.8124,969.0541Q630.57336,971.36365,629.0763,972.9807Q621.9881,979.6387,621.2899,981.2593Q617.9859,986.24506,613.8977,996.6547L615.83765,988.2524Q611.6991,992.47375,602.03986,993.7773Q589.09045,995.33453,570.8365,994.1784Q565.2542,993.69006,559.6332,992.5164Q558.78394,985.7281,556.94226,982.0996Q555.3555,979.21936,552.0185,976.2157L550.69135,980.9003Q551.2306,973.064,547.8614,970.5399Q545.5433,967.52905,527.98047,960.1978Q527.0991,956.01294,528.22516,916.02966L525.1858,909.2028"/>
</g>
<g style="fill:rgb(0,0,0); fill-opacity:0.9843137; stroke-linejoin: miter">
<path d="M554.3458,993.7509L554.8041,993.64355Q559.19543,992.8231,567.8421,989.34625L564.1277,992.3989Q568.2568,989.84265,570.13654,989.9731Q571.15155,989.95526,572.6484,990.2875L570.87573,992.36005Q572.6732,990.3529,573.54407,990.45123Q573.71967,990.39417,574.3007,990.6988Q576.32434,992.3868,576.4511,992.35706Q577.2475,992.7331,577.52673,992.7141Q578.7078,993.0014,582.3132,991.51575L579.7379,994.0262L583.46075,991.3457Q584.22943,993.0112,585.68915,993.21906Q586.2796,993.29926,587.27576,993.07263L591.3025,992.0362Q592.4729,991.90125,592.57306,991.9732Q594.5968,992.1528,595.03876,996.28815L593.541,990.4464Q596.38666,992.9689,597.8562,992.8415Q598.2949,992.8751,599.0738,992.38983Q599.3082,992.29004,601.26154,990.46063Q601.93884,990.02704,602.1149,990.11566Q603.374,990.10547,604.95776,996.03015L602.8983,989.9238Q604.99524,990.8034,606.9273,990.4118Q607.77673,990.2441,608.8519,989.7481Q612.64374,987.81885,613.0463,987.74615Q614.61127,987.22504,614.9089,987.2547Q616.66473,987.0069,618.022,988.16473Q619.89246,989.3241,623.13916,997.13153L572.7501,1010.12164L554.3458,993.7509"/>
</g>
<g style="fill:rgb(0,0,0); fill-opacity:0.9843137; stroke-linejoin: miter">
</g>
<g style="fill:rgb(0,0,0); fill-opacity:0.9843137; stroke-linejoin: miter">
<path d="M525.5963,965.62054L527.408,957.74023Q529.0713,958.49634,529.85126,960.09106Q529.93427,960.04913,529.4937,958.11707Q531.1273,960.5147,531.92773,960.6142Q532.617,960.9315,534.14087,959.2633L534.63696,961.4546Q534.5466,959.9022,534.61426,959.69543Q534.7094,959.26587,534.86176,959.4145Q535.0034,959.51904,535.1225,959.68835Q536.21564,961.30176,536.4736,961.56824Q537.12024,962.2886,537.28314,962.37683Q537.4165,962.5249,538.20386,962.93964Q540.6646,963.8356,541.0144,964.13727Q541.1668,964.2036,541.7633,964.7753Q541.9104,964.88934,543.24554,966.54144Q543.4543,966.77594,543.67554,966.9726Q544.11945,967.3807,545.56995,968.1643Q546.1424,968.5552,546.2367,968.6768Q547.3606,969.8306,548.20593,972.9475Q548.8936,975.27026,548.9624,976.0563Q549.03455,976.6047,548.9881,977.0431L548.9021,977.4448Q548.289,979.1972,544.0023,977.00366Q540.55896,975.51575,525.5963,965.62054"/>
</g>
<g style="fill:rgb(0,0,0); fill-opacity:0.9843137; stroke-linejoin: miter">
<path d="M616.1532,996.4399L616.5372,995.5216Q619.22174,989.5533,619.01715,985.4144Q618.98236,981.73596,614.85944,974.36487L619.81244,978.65405Q616.5045,976.0698,616.6206,974.94977Q616.5282,974.79736,617.1838,974.3355L620.3475,973.1822Q621.3283,972.7855,621.87054,972.09186Q622.97235,970.4698,622.14557,966.621L624.42523,969.94275Q622.2811,966.8479,623.51544,965.39075Q624.0518,964.6647,625.12115,963.92523Q630.77026,960.33093,631.48737,959.4622Q633.4097,957.86584,637.3119,953.2071L640.02515,962.35034L616.1532,996.4399"/>
</g>
<g style="fill:rgb(0,0,0); fill-opacity:0.9843137; stroke-linejoin: miter">
<path d="M651.3755,962.805L650.5218,962.06116Q644.7144,957.0705,643.5114,955.31525Q642.2414,953.63385,645.2371,953.61084L640.188,950.9019Q644.7188,950.49866,646.55164,950.6409Q648.5924,950.7168,652.3442,951.53564L646.456,949.5533Q654.4541,950.9947,655.6429,950.4693Q657.4351,950.1762,655.817,947.13873L662.4565,951.68384Q655.33093,946.86255,655.4226,945.4886Q655.3558,944.90375,655.76294,944.37067Q657.6476,942.41644,658.72375,940.54755Q659.36127,939.5542,661.24524,935.73914L665.554,941.05853Q666.654,942.6708,667.04596,943.6489Q668.462,946.5139,669.8302,955.94L651.3755,962.805"/>
</g>
<g style="fill:rgb(0,0,0); fill-opacity:0.9843137; stroke-linejoin: miter">
</g>
<g style="fill:rgb(0,0,0); fill-opacity:0.9843137; stroke-linejoin: miter">
<path d="M553.9845,957.03125L564.9105,958.47015Q565.7099,961.42957,566.19147,962.3342Q566.65845,963.3415,567.7566,964.2061Q562.2648,962.0306,555.6928,958.7831Q553.9861,957.9026,553.68274,957.5504Q553.5639,957.466,553.55725,957.2657Q553.56793,957.151,553.9845,957.03125"/>
</g>
<g style="fill:rgb(0,0,0); fill-opacity:0.9843137; stroke-linejoin: miter">
<path d="M561.52527,958.61786L568.9104,958.45905Q569.9918,959.697,570.6918,961.79004L570.34546,958.45483Q573.48236,958.52356,574.55743,959.10815Q575.3948,959.11273,575.9027,963.1983Q575.7447,961.01483,576.3153,960.0201Q576.7497,959.1641,578.21124,958.7972Q580.8044,958.3188,582.3943,959.31586Q583.70184,960.2815,584.00275,962.78894Q583.8197,960.80927,584.70056,959.778Q585.4278,958.92615,587.7367,958.30664Q590.5295,957.621,591.3444,958.2039Q592.06934,958.4363,593.03345,961.2148Q593.1929,957.1145,596.2212,956.34644Q597.6925,955.9738,598.44653,956.5287Q599.1398,956.88885,599.79266,958.97424Q600.5002,957.0607,601.4766,956.3413Q602.58636,955.61975,604.1617,955.9566Q605.73956,956.1515,606.1096,958.65485Q607.2822,955.53986,608.8741,955.20087Q611.27405,954.38763,610.17737,957.96936Q623.80927,954.65424,620.26776,953.12427Q619.4318,952.85645,617.00354,952.8029Q615.2786,952.7304,609.64874,953.01483Q601.81354,953.4024,583.59076,955.0899Q575.34174,955.852,553.8619,958.0662L561.52527,958.61786"/>
</g>
<g style="fill:rgb(0,0,0); fill-opacity:0.9843137; stroke-linejoin: miter">
</g>
<g style="fill:rgb(0,0,0); fill-opacity:0.9843137; stroke-linejoin: miter">
<path d="M563.9955,961.4215L564.3646,961.72125Q567.2985,964.1393,568.5352,964.51904Q569.788,964.96155,571.33575,964.71814Q572.34674,965.805,574.0862,965.92706Q575.93677,966.1293,576.11804,965.2319Q576.91724,966.5844,578.4583,966.7732Q580.4632,967.10345,582.62274,966.76294Q584.5168,966.4561,584.77893,965.6723Q585.9482,966.7232,589.34784,966.27783Q592.16296,965.9852,593.24994,964.2163Q593.29626,964.76465,594.70435,964.56665Q597.0925,964.23737,598.5424,963.68585Q599.70276,963.26514,599.82465,962.37177Q601.2628,962.8125,603.5526,961.4176Q605.10785,960.53534,605.865,959.46594Q607.92285,959.8714,608.45953,959.43945Q609.54083,959.0236,613.3907,954.5201L615.65906,955.5043Q610.4776,959.11285,608.96747,959.7427Q607.16565,960.5873,606.0196,959.912Q604.3519,961.93066,603.03534,962.533Q602.23566,962.956,600.13525,962.9174Q599.77136,964.1245,597.3746,964.76984Q594.15515,965.7845,593.478,964.95416Q590.68427,966.90686,587.9533,967.13696Q586.0787,967.3704,585.0118,966.4229Q582.7378,967.8541,579.2356,967.4936Q577.0832,967.3472,576.1741,966.5039Q574.1442,966.64966,573.2546,966.38715Q572.4307,966.1441,571.53845,965.47015Q569.4245,965.7881,568.2602,965.51874Q567.66833,965.39124,567.08057,965.0557L562.9918,962.1063Q561.72705,961.2735,557.9776,959.31915L563.9955,961.4215"/>
</g>
<g style="fill:rgb(0,0,0); fill-opacity:0.9843137; stroke-linejoin: miter">
<path d="M553.67804,957.4949L554.6037,958.5536Q563.8224,969.3688,569.34595,973.0744Q575.2074,977.05804,583.03644,976.4092Q590.24603,975.6868,597.13934,971.34766Q605.27295,966.2015,618.05615,954.1134Q610.8632,963.92474,601.97754,969.7655Q591.3946,976.26337,582.58,976.7461Q579.0436,976.93475,575.5461,975.96387Q574.96533,975.8838,572.08026,974.6923Q569.77594,973.647,567.4168,972.06714Q561.8448,968.55133,549.8107,956.272L553.67804,957.4949"/>
</g>
<g style="fill:rgb(0,0,0); fill-opacity:0.9843137; stroke-linejoin: miter">
</g>
<g style="fill:rgb(0,0,0); fill-opacity:0.9843137; stroke-linejoin: miter">
</g>
</g>
<g id="layer5">
<g style="fill:rgb(0,0,0); fill-opacity:0.9843137; stroke-linejoin: miter">
<path d="M620.08307,876.6864Q630.81116,876.6864,632.4257,877.54236Q636.48804,878.9816,637.875,883.2908Q639.8156,888.7323,638.7791,894.1839Q636.1355,904.7912,633.71313,908.6838Q631.5011,912.9123,625.1864,915.90857Q619.758,918.34174,613.0169,918.4003Q612.9875,918.4003,612.9582,918.4003Q603.5912,918.4003,600.6436,916.36035Q594.41113,912.52405,590.81,902.0259Q595.24695,900.2079,593.93866,898.56384Q593.4866,897.3651,589.9836,896.40234L589.6483,896.30585Q587.5042,890.2248,589.55005,887.2777Q592.58026,882.32336,599.2123,879.1855Q604.1369,877.0855,611.4985,876.79034Q616.34424,876.6864,620.08307,876.6864 Z M552.62946,884.21326Q555.0449,884.21326,556.2343,884.41235Q562.65466,885.27234,565.6362,890.64124Q567.6352,894.0066,567.28516,898.53937Q563.0588,899.49615,563.6111,901.63745Q563.7784,903.2952,565.9797,903.2952Q566.6787,903.2952,567.5828,903.12805L567.5885,903.129L567.5536,903.7122Q567.66205,912.86615,560.1416,920.07275Q557.8624,922.11383,554.11316,922.9738Q552.23157,923.4777,549.3796,923.4777Q547.2754,923.4777,544.64294,923.2034Q534.0751,921.3702,529.4734,916.3031Q527.9389,914.3254,527.0913,909.13715Q525.87585,902.22675,526.16833,897.46967Q526.60583,893.2036,526.996,892.5661Q527.46344,891.0711,528.25244,889.8856Q529.8913,887.57404,532.6292,886.479Q534.5694,885.4721,540.18854,884.84076Q548.3412,884.21326,552.62946,884.21326 Z M619.7198,873.624Q616.78613,873.624,614.6599,873.8471Q605.6239,874.42523,596.447,878.1313Q590.90607,880.4823,585.62134,886.42944Q582.16156,885.9395,579.7564,885.9395Q578.61053,885.9395,577.70404,886.0507Q574.9403,886.2692,568.9023,888.1189Q562.8219,881.405,558.75824,880.2554Q555.4,879.15063,551.28455,879.15063Q548.8648,879.15063,546.1833,879.53253L526.49963,882.3463Q525.358,882.6042,524.4006,883.0479Q519.7832,885.5497,518.982,885.70215Q517.15436,886.43427,511.50952,887.94116L511.69574,892.5707Q516.78345,893.7022,517.0559,896.78516L521.36554,896.84534Q522.5401,913.29333,526.78937,917.4863Q535.3336,925.62305,546.29926,925.81946Q559.5698,925.7551,565.2151,918.54755Q567.466,916.0477,569.089,910.0854Q569.70044,907.38544,569.9105,904.6147L570.7354,893.027Q571.23376,890.80896,573.26556,890.065Q576.9744,889.0453,579.5857,889.0453Q583.23016,889.0453,584.7367,891.03156Q585.9342,892.73083,586.22363,894.0778Q588.485,905.41284,589.7982,907.35205Q591.88855,912.32806,597.1875,916.6091Q602.78766,920.71136,610.8972,920.71136Q612.7133,920.71136,614.6552,920.5056Q629.83356,918.22485,634.3241,911.74255Q638.73804,906.6452,641.18024,890.20905L643.6604,887.54114Q643.8447,883.6888,646.1711,882.1694Q648.3703,881.0238,652.2707,881.0238Q653.3798,881.0238,654.6265,881.11646Q663.183,881.6718,674.56964,883.899Q675.339,880.0337,674.3302,878.7798Q673.6351,878.1333,671.99426,878.1333Q670.233,878.1333,667.38196,878.87823Q663.155,877.8004,628.0204,873.95197Q623.2766,873.624,619.7198,873.624 Z"/>
</g>
</g>
</svg>