<svg id="SvgjsSvg1013" width="288" height="288" xmlns="http://www.w3.org/2000/svg" version="1.1" xmlns:xlink="http://www.w3.org/1999/xlink" xmlns:svgjs="http://svgjs.com/svgjs"><defs id="SvgjsDefs1014"></defs><g id="SvgjsG1015"><svg xmlns="http://www.w3.org/2000/svg" width="288" height="288" version="1.0" viewBox="0 0 1280 1267"><g transform="matrix(.1 0 0 -.1 0 1267)" fill="#4acaa8" class="color000 svgShape"><path d="M7205 12569 c-22 -6 -107 -11 -190 -12 -163 -4 -321 -33 -455 -84-36 -14 -90 -28 -121 -32 -130 -15 -222 -132 -191 -243 9 -33 8 -36 -19 -52
-42 -25 -55 -51 -69 -139 -7 -43 -23 -105 -34 -137 -21 -57 -21 -64 -9 -207 7
-81 20 -194 28 -251 21 -143 22 -136 -32 -153 -39 -12 -49 -20 -51 -41 -2 -20
3 -28 27 -38 33 -13 36 -21 21 -50 -7 -13 -6 -28 1 -47 6 -15 15 -74 19 -130
5 -67 13 -112 24 -128 9 -13 16 -31 16 -39 0 -9 13 -30 29 -49 30 -33 30 -34
20 -101 -5 -38 -12 -72 -15 -78 -3 -5 -1 -14 5 -21 5 -7 11 -49 12 -93 2 -67
-1 -87 -18 -116 l-21 -35 20 -32 c11 -17 32 -38 47 -46 25 -14 25 -14 4 -15
-42 0 -20 -35 27 -42 19 -2 26 -11 32 -42 5 -22 16 -48 24 -57 15 -17 13 -19
-20 -33 -32 -13 -41 -25 -37 -48 0 -4 2 -21 3 -38 3 -35 15 -45 70 -55 32 -6
36 -10 28 -25 -7 -13 -3 -23 16 -41 21 -19 25 -31 21 -59 -3 -19 -8 -43 -13
-54 -6 -16 -5 -17 14 -7 12 7 22 8 22 4 0 -4 5 -2 12 5 14 14 78 17 78 4 0 -5
-9 -17 -21 -28 -17 -15 -23 -16 -40 -6 -10 7 -19 8 -19 4 0 -16 35 -40 78 -53
94 -27 77 -56 -84 -143 -274 -147 -486 -293 -578 -398 -113 -128 -142 -246
-182 -723 -9 -110 -17 -201 -18 -202 -1 -1 -579 -46 -1284 -101 -706 -54
-1288 -104 -1293 -109 -7 -7 18 -74 71 -197 221 -512 353 -749 1060 -1901 l37
-60 74 -6 c41 -4 144 -7 229 -8 85 -1 192 -4 237 -7 78 -7 82 -8 94 -35 19
-48 72 -85 161 -114 147 -49 182 -69 254 -153 131 -151 200 -177 462 -170
l152 4 0 -42 c0 -57 -33 -299 -80 -588 -94 -574 -103 -724 -94 -1556 8 -791
-4 -1131 -67 -1950 -22 -293 -85 -1035 -95 -1118 -6 -47 -5 -52 14 -52 24 0
21 -25 67 500 108 1234 127 1651 123 2687 -4 916 -7 873 116 1633 19 118 40
271 47 340 7 69 13 126 14 127 0 1 22 -8 48 -21 26 -13 69 -27 97 -31 49 -7
51 -8 46 -34 -9 -43 -54 -393 -75 -581 -61 -540 -108 -1564 -118 -2545 -7
-764 8 -1154 72 -1802 14 -138 25 -256 25 -262 0 -6 9 -11 20 -11 23 0 24 10
10 125 -32 266 -65 718 -81 1101 -29 712 20 2425 92 3194 18 196 81 706 95
773 l6 27 124 0 c68 0 124 -3 124 -7 0 -5 -9 -63 -20 -131 -149 -914 -160
-1159 -95 -2237 73 -1219 126 -1810 216 -2425 22 -151 41 -284 42 -295 2 -18
-6 -21 -89 -26 -102 -8 -178 -27 -263 -67 l-56 -26 42 -4 c25 -2 54 3 73 13
47 24 155 45 237 45 71 0 72 0 75 -27 2 -21 9 -29 26 -31 19 -3 23 0 18 15
-11 37 -76 475 -105 703 -55 431 -92 836 -135 1495 -106 1587 -105 1815 14
2603 63 416 57 392 89 392 16 0 28 -5 28 -13 0 -8 14 -34 32 -60 49 -71 141
-277 141 -316 0 -19 -7 -58 -16 -87 -19 -58 -14 -84 14 -84 11 0 72 31 135 70
103 62 126 72 203 85 167 29 251 19 489 -58 228 -74 307 -92 484 -107 195 -17
500 13 855 86 295 60 431 99 861 248 l190 66 2 -377 c1 -208 7 -592 13 -853
11 -468 12 -478 45 -685 110 -667 107 -1234 -10 -2747 -31 -390 -31 -378 -5
-378 14 0 20 7 20 24 0 13 11 170 25 348 66 856 88 1287 88 1728 1 439 -20
703 -88 1095 -21 123 -25 193 -34 570 -6 237 -11 621 -11 855 l1 425 32 31
c18 17 73 62 122 100 240 184 307 308 265 491 -8 35 -6 57 12 120 21 70 23 94
18 233 -5 187 -5 309 0 630 3 193 0 269 -13 360 -10 67 -16 168 -15 240 1 102
-4 151 -27 264 l-29 140 19 120 c23 153 31 464 15 595 -30 247 -102 509 -182
664 -98 189 -191 245 -908 557 -129 56 -328 149 -442 206 -113 57 -229 109
-257 116 l-51 11 6 38 c6 37 6 38 -35 49 -55 14 -77 36 -162 160 -141 205
-227 296 -292 309 -32 7 -32 7 -29 61 1 30 5 76 8 101 5 45 7 47 44 53 54 8
109 68 160 173 82 166 100 324 51 426 -36 74 -108 105 -172 73 -17 -9 -34 -16
-35 -16 -2 0 -1 46 3 103 9 150 -9 220 -119 457 -167 361 -198 402 -379 488
-61 30 -134 75 -177 110 -89 72 -118 81 -207 61z m6 -449 c74 0 206 -26 317
-64 127 -43 143 -53 189 -121 19 -30 43 -55 52 -55 11 0 12 -3 4 -8 -9 -6 6
-41 53 -127 70 -130 114 -223 89 -191 -8 11 -16 25 -16 30 -4 36 -17 -63 -18
-136 0 -49 -4 -88 -8 -88 -5 0 -79 9 -166 20 -137 17 -163 23 -188 44 -37 32
-108 46 -224 46 -87 0 -96 -2 -127 -27 -22 -18 -27 -20 -15 -6 18 21 18 21 -2
28 -12 3 -47 -1 -79 -11 -31 -10 -61 -18 -65 -18 -11 -1 -27 -28 -27 -47 0 -8
7 -24 16 -35 15 -18 15 -18 5 3 -6 12 -11 28 -10 35 0 7 7 -2 15 -21 l15 -33
-43 -37 c-36 -31 -48 -36 -83 -33 -23 2 -66 -3 -96 -11 l-55 -14 -60 56 c-33
31 -49 47 -37 37 27 -23 29 -16 8 23 -17 34 -33 41 -86 41 -30 0 -38 -3 -33
-12 5 -9 3 -9 -9 1 -33 27 -189 -4 -240 -48 -17 -15 -44 -31 -59 -34 l-26 -7
-8 78 c-5 42 -9 118 -9 167 0 84 3 95 38 170 48 101 133 228 187 280 l41 40
87 1 c74 0 95 4 142 27 30 16 46 21 36 12 -18 -14 -15 -15 45 -15 35 0 95 5
132 10 79 12 227 58 227 72 0 5 10 2 22 -6 13 -9 43 -16 69 -16z m264 -794
c90 -20 98 -31 92 -126 -8 -132 -63 -237 -147 -280 -55 -28 -153 -41 -229 -30
-81 11 -119 42 -165 134 l-25 48 22 18 c18 15 19 20 8 34 -7 9 -19 16 -26 16
-17 0 -25 23 -25 67 0 47 36 94 92 122 39 19 55 21 188 16 80 -2 177 -11 215
-19z m734 -1 c16 -8 32 -22 35 -32 6 -16 6 -16 -12 0 -35 32 -76 22 -121 -30
-23 -25 -40 -48 -38 -49 2 -2 19 1 38 6 76 22 120 -35 120 -160 0 -84 -18
-128 -70 -170 -40 -32 -50 -53 -32 -64 5 -3 22 4 37 17 l29 22 -16 -25 c-9
-14 -24 -38 -34 -53 -31 -48 -90 -68 -152 -51 -20 6 -21 10 -16 103 3 54 1
119 -5 147 -12 56 1 220 22 284 11 33 14 35 52 33 24 -2 55 5 79 17 47 24 48
24 84 5z m-337 -11 c15 -4 17 -32 21 -262 2 -141 7 -268 11 -282 3 -14 -2 -2
-13 25 -21 56 -21 55 -47 -55 -16 -73 -35 -120 -58 -149 -6 -8 -11 -30 -11
-50 0 -35 -1 -36 -40 -37 -108 -1 -136 -5 -130 -14 3 -5 -1 -10 -10 -10 -12 0
-2 -17 31 -57 l48 -58 -58 56 -58 56 -41 -44 c-23 -25 -60 -58 -83 -74 -32
-22 -44 -38 -53 -72 -8 -35 -17 -47 -41 -57 -41 -17 -42 -22 -24 -65 8 -20 14
-51 12 -67 -3 -26 -8 -31 -33 -33 -17 -1 -45 -10 -62 -19 -18 -9 -49 -16 -69
-16 -21 0 -46 -7 -56 -17 -13 -12 -23 -14 -40 -6 -14 6 -41 6 -76 0 -66 -11
-82 -1 -57 37 11 17 26 26 43 26 19 0 42 17 84 62 31 34 56 63 55 65 -2 1 -25
-4 -52 -12 -57 -18 -99 -20 -75 -5 19 12 10 12 -66 0 -47 -8 -72 -7 -107 4
-41 12 -48 12 -76 -5 -17 -10 -31 -23 -31 -28 0 -22 32 -81 44 -81 7 0 34 -11
61 -25 34 -19 51 -23 60 -15 9 7 16 6 24 -4 9 -11 5 -15 -21 -19 -18 -3 -42 1
-53 7 -32 20 -65 25 -92 15 -15 -6 -22 -5 -18 1 3 5 -13 3 -36 -5 -50 -18 -49
-18 -49 -2 0 32 -32 115 -55 142 -20 24 -26 27 -34 16 -7 -11 -11 -5 -16 22
-5 27 -23 53 -63 92 -31 30 -61 55 -68 55 -6 0 -19 9 -29 20 -11 12 -28 20
-40 18 -12 -1 -33 5 -48 15 -26 17 -27 21 -27 111 0 51 3 154 7 230 6 124 8
135 22 122 9 -7 36 -24 61 -37 39 -21 59 -24 145 -24 83 0 107 4 140 22 88 47
122 114 131 262 4 56 12 108 18 117 8 10 34 18 71 21 76 7 89 -6 115 -111 25
-99 49 -143 103 -193 56 -52 108 -67 207 -60 193 12 274 83 313 272 18 90 64
177 97 186 24 7 158 2 192 -7z m-1217 -48 c59 -39 86 -134 45 -156 -28 -15
-25 -38 5 -46 23 -6 25 -10 19 -43 -13 -71 -66 -151 -117 -177 -43 -23 -148
-22 -221 1 -112 35 -146 97 -146 261 0 99 15 127 79 149 111 36 288 42 336 11z
m1334 -695 c-5 -62 -6 -117 -3 -122 3 -5 24 -9 46 -9 37 0 47 -6 112 -72 39
-40 108 -127 153 -194 72 -106 149 -194 171 -194 39 -1 29 -24 -96 -216 -201
-311 -246 -393 -305 -554 -3 -8 -105 -66 -226 -129 -122 -63 -221 -120 -221
-127 0 -7 62 -52 138 -100 75 -48 138 -88 139 -88 7 -5 -32 -231 -58 -336 -33
-133 -127 -424 -229 -708 l-63 -173 -78 236 c-90 271 -133 369 -185 415 l-37
32 -114 -4 c-62 -2 -113 1 -113 6 0 15 99 342 157 521 104 318 208 557 401
920 15 28 42 82 59 120 18 39 78 131 134 205 55 74 109 151 120 172 36 71 69
235 75 373 6 141 10 163 24 149 5 -5 5 -56 -1 -123z m871 -825 c140 -69 381
-180 535 -247 463 -201 616 -284 700 -381 105 -122 210 -445 246 -758 15 -134
6 -446 -18 -595 l-18 -110 28 -135 c23 -110 28 -159 28 -265 0 -71 7 -184 16
-250 13 -92 16 -174 13 -355 -5 -308 -5 -454 0 -630 4 -130 2 -153 -19 -228
-20 -71 -22 -89 -12 -127 45 -177 -22 -288 -299 -497 -96 -72 -128 -90 -190
-108 -41 -12 -163 -54 -270 -92 -489 -175 -1063 -290 -1445 -290 -205 0 -332
22 -565 97 -263 85 -355 98 -511 74 -39 -6 -73 -8 -76 -5 -3 3 20 78 52 167
32 89 58 169 57 178 0 9 7 70 16 135 13 101 20 124 42 150 70 82 100 161 100
263 0 29 1 53 3 54 1 0 182 4 402 9 l400 8 418 100 c230 55 420 102 421 104 2
1 24 32 50 67 34 46 44 67 36 76 -6 7 -50 16 -104 20 l-94 7 -11 66 c-83 514
-73 1219 25 1715 88 446 224 714 553 1086 94 107 109 131 77 131 -15 0 -125
-119 -236 -255 -369 -453 -513 -992 -513 -1920 0 -326 20 -601 59 -796 l5 -27
-88 -6 c-48 -4 -204 -18 -346 -33 -153 -15 -262 -22 -267 -17 -9 10 -390 1065
-390 1082 0 6 15 14 33 17 17 4 139 31 271 61 131 30 240 54 242 54 2 0 4 79
4 175 0 96 -2 175 -5 175 -2 0 -144 -38 -315 -85 -171 -47 -313 -85 -315 -85
-2 0 18 64 46 143 114 317 212 619 244 747 29 116 65 315 65 362 0 8 -59 52
-131 97 l-131 84 209 107 208 108 23 63 c40 115 134 279 332 582 l45 68 55 -5
c44 -4 105 -30 310 -130z m-1380 -161 c0 -2 -31 -66 -69 -143 -149 -297 -273
-639 -419 -1152 l-18 -65 -53 -3 -52 -3 7 38 c4 21 19 72 34 113 29 79 203
492 250 595 26 57 145 361 206 530 24 64 34 81 54 86 30 8 60 11 60 4z m-190
-45 c-70 -88 -292 -262 -310 -244 -10 10 -80 174 -80 186 0 4 19 5 43 2 35 -5
69 2 178 39 74 26 145 48 159 50 14 2 29 5 33 6 5 0 -5 -17 -23 -39z m-640 -4
c0 0 -9 -53 -20 -116 -39 -218 -37 -457 6 -783 l14 -109 -41 -163 -41 -162
-76 -6 c-43 -2 -79 -3 -81 -1 -6 6 38 452 59 595 10 69 39 213 64 320 25 107
52 246 62 309 9 63 18 118 20 122 4 6 34 0 34 -6z m239 -139 c33 -81 61 -152
61 -157 0 -12 -70 -230 -77 -243 -7 -11 -90 70 -109 105 -8 15 -14 53 -14 85
0 81 -9 92 -56 70 -20 -10 -39 -15 -42 -12 -6 6 23 231 34 258 4 11 14 13 44
6 46 -11 90 3 90 27 0 26 3 20 69 -139z m349 -121 l-94 -236 -77 94 c-42 53
-77 99 -77 103 1 4 40 33 87 63 48 30 123 91 167 136 45 44 82 80 84 79 1 -1
-39 -109 -90 -239z m-684 141 c-16 -108 -29 -176 -64 -317 -50 -203 -75 -370
-106 -720 -9 -102 -17 -186 -18 -187 -3 -4 -648 -34 -653 -30 -11 12 39 530
63 647 40 193 150 319 437 496 94 59 337 194 348 194 3 0 0 -38 -7 -83z m156
-251 c0 -25 4 -55 9 -68 15 -38 158 -184 169 -173 5 6 28 65 50 133 l39 123
74 -91 c41 -51 73 -97 71 -103 -2 -6 -46 -112 -98 -234 -137 -323 -171 -412
-185 -480 l-13 -61 -105 -4 c-58 -3 -107 -4 -109 -3 -2 2 15 74 37 162 l40
159 -20 164 c-10 91 -22 237 -26 326 l-6 161 24 16 c39 28 49 22 49 -27z m599
-1024 c38 -60 84 -179 161 -422 34 -107 71 -220 82 -250 351 -980 495 -1379
516 -1437 18 -49 32 -73 43 -73 8 0 192 32 408 71 216 38 397 69 401 67 5 -2
-1 -15 -13 -29 -20 -23 -62 -35 -407 -118 -212 -50 -392 -91 -401 -91 -11 0
-114 277 -409 1108 -216 609 -403 1135 -416 1169 -27 74 -11 76 35 5z m319
-1120 c227 -640 411 -1166 408 -1169 -3 -4 -439 -14 -968 -24 l-963 -18 -78
26 c-72 25 -80 31 -99 68 -52 104 -143 172 -241 182 -43 4 -57 1 -79 -17 -24
-18 -28 -29 -28 -68 1 -26 9 -72 20 -102 11 -30 19 -58 20 -62 0 -5 -30 -8
-67 -8 -68 0 -68 1 -98 42 -38 52 -114 113 -161 128 -54 18 -177 9 -203 -14
-35 -31 -21 -95 33 -155 l21 -23 -325 6 c-179 3 -373 9 -432 12 l-108 7 -86
141 c-514 835 -746 1242 -890 1556 -84 185 -164 371 -164 384 0 17 2429 200
3000 226 245 12 555 27 690 34 135 8 276 13 315 12 l70 -1 413 -1163z m575
339 c-3 -5 -514 -121 -533 -121 -11 0 -29 36 -58 118 -23 65 -42 122 -42 128
0 6 141 48 313 95 l312 84 5 -150 c3 -82 4 -152 3 -154z m693 -1228 c42 -5 -4
-16 -356 -79 -223 -41 -411 -74 -417 -74 -12 0 -43 60 -43 85 0 8 64 19 208
34 355 39 511 48 608 34z m-3141 -107 c57 -26 104 -75 140 -146 19 -37 33 -51
59 -60 19 -6 73 -35 120 -65 l86 -53 200 -31 c110 -17 205 -31 212 -31 8 0 22
16 32 35 26 47 54 64 142 81 41 7 84 18 94 24 11 6 99 10 206 10 l187 0 -6
-78 c-7 -93 -21 -130 -80 -205 -44 -57 -45 -58 -63 -192 -10 -74 -22 -135 -27
-135 -5 0 -71 11 -146 25 -177 32 -287 43 -561 55 -276 13 -308 19 -370 75
-24 22 -29 22 -95 13 -100 -14 -328 -4 -389 17 -49 18 -77 42 -192 168 -61 67
-61 67 -36 74 23 6 57 -3 126 -32 10 -5 -3 12 -30 38 -79 73 -254 294 -254
319 0 26 32 38 96 38 38 0 72 -7 101 -21 42 -20 141 -121 161 -163 6 -12 20
-42 32 -69 27 -58 54 -73 149 -83 49 -4 93 -17 139 -39 37 -17 82 -35 99 -38
30 -6 21 5 -85 111 -115 114 -118 119 -150 206 -33 91 -41 161 -19 169 28 12
75 5 122 -17z m995 -837 c140 -17 300 -51 300 -63 0 -18 -99 -288 -111 -302
-6 -8 -22 -11 -38 -8 -15 3 -46 1 -68 -5 -54 -15 -69 -7 -76 37 -8 60 -43 141
-107 249 -33 56 -60 104 -60 107 0 4 26 2 160 -15z" fill="#4acaa8" class="color000 svgShape"></path><path d="M8028 11114c-1-10-2-60-2-109l-1-90 59 5c48 5 63 11 82 34 28 31 30 65 9 106-13 26-21 30-57 30-29 0-49 7-65 22-22 21-23 21-25 2zM7320 10701c58-56 99-99 91-95-11 5-13 3-8-9 5-14 1-13-23 5l-29 21-81-18c-78-18-86-18-169-2-110 21-132 21-176 0-31-15-40-15-68-4-66 27-85 26-130-10-23-18-35-25-27-14 14 17 13 18-5 11-11-4-52-14-92-21-40-7-88-22-108-34-20-11-39-21-42-21-4 0 36 75 75 140 10 16 4 12-16-10-51-58-82-123-88-189l-7-61 48-45c26-25 51-45 56-45 5 0 9-10 9-22 1-21 2-21 17 6 10 19 14 44 10 74l-5 44 57-54c89-85 112-99 39-22-38 38-68 73-68 78 0 4 38-13 85-38 47-25 88-46 91-46 3 0-8 13-25 29-38 36-41 61-6 61 14 0 25-6 25-12 0-10 3-9 9 1 10 16 61 7 61-10 0-6 7-3 16 5 19 20 48 20 67 2 9-9 18-11 24-5 5 5 24 13 41 18 24 7 36 6 47-5 8-9 15-11 15-5 0 6 12 18 26 28 25 16 27 16 39 0 11-15 14-16 25-2 16 19 49 19 56 0 5-12 9-11 23 7 10 12 23 18 29 14 18-11-5-46-31-47-17-1-18-2-4-6 9-2 33 5 53 17 19 12 37 21 39 19 6-7-134-123-202-166-79-51-74-55 11-10 33 17 97 66 141 108 44 42 91 82 104 89 39 20 5 31-84 25l-80-5 45 15c25 8 66 15 93 15 42 0 51-4 86-40l38-39 11 23c6 14 14 41 18 62l7 37 19-34c14-26 17-28 12-9-22 85-95 171-212 251l-77 52 105-102zm-403-171c14-21 69-53 81-46 4 2 18-2 32-10 16-8 19-13 10-14-9 0-103-9-210-20-211-22-270-24-270-12 0 16 72 42 118 42 26 1 58 7 71 14 13 7 31 11 40 9 9-2 37 10 61 26 54 36 52 36 67 11zM5344 6967c-54-31 50-212 151-262 34-17 57-20 154-17 139 4 155 10 148 60-5 28-18 48-58 83l-51 46 12 38c20 59 7 63-181 62-88-1-167-6-175-10z" fill="#4acaa8" class="color000 svgShape"></path></g></svg></g></svg>