<svg id="SvgjsSvg1001" width="288" height="288" xmlns="http://www.w3.org/2000/svg" version="1.1" xmlns:xlink="http://www.w3.org/1999/xlink" xmlns:svgjs="http://svgjs.com/svgjs"><defs id="SvgjsDefs1002"></defs><g id="SvgjsG1008" transform="matrix(0.9167,0,0,0.9167,11.995243692588815,11.993568598175045)"><svg xmlns="http://www.w3.org/2000/svg" width="288" height="288" viewBox="0 0 1250 1100"><path d="M1228.07 104.09C1232.29 103.51 1236.46 102.31 1240.76 102.3 1241.57 103.81 1239.86 104.95 1239.21 106.11 1227.38 123.37 1216.23 141.09 1204.25 158.25 1193.73 173.46 1183.52 188.89 1173.27 204.28 1149.04 239.73 1125.5 275.65 1101.12 311 1090.45 327.34 1079.56 343.53 1068.34 359.5 1043.36 397.67 1017.26 435.08 992.16 473.17 977.49 493.96 963.83 515.41 949.44 536.39 936.39 555.99 922.94 575.31 909.96 594.96 902.9 605.84 895.39 616.41 888.09 627.13 872.38 650.73 856.46 674.2 840.6 697.71 839.35 699.13 838.72 701.91 836.38 701.58 825.41 674.76 813.84 648.18 802.53 621.51 789.93 592.38 777.86 563.02 765.33 533.85 758.92 519.48 752.61 505.04 746.63 490.49 746.34 490.43 745.75 490.32 745.45 490.26 736.64 496.83 727.78 503.34 719.08 510.07 688.96 531.47 659.73 554.08 629.88 575.85 622.71 580.38 617.13 587.7 608.85 590.24 609.8 586.5 610.37 582.68 611.2 578.92 615.95 564.16 618.7 548.88 623.06 534 625.46 524.5 628.32 515.12 630.2 505.5 632.45 499.55 633.43 493.19 635.08 487.05 643.92 453.62 652.12 420.03 660.58 386.5 663.85 374.33 666.45 361.96 670.26 349.93 665.86 345.01 659.94 341.47 655.11 336.91 644.71 328.66 634.92 319.69 624.62 311.32 596.65 288.36 569.44 264.51 541.34 241.71 536.92 238.76 533.74 234.42 529.44 231.34 528.39 230.69 529.16 228.59 530.46 228.69 550.92 225.11 571.46 221.99 591.82 217.81 600.35 216.51 608.87 215.14 617.34 213.49 617.55 213.07 617.97 212.25 618.19 211.84 618.26 212.3 618.4 213.24 618.48 213.7 635.64 208.99 653.54 207.8 670.88 203.88 684.66 200.92 698.62 198.9 712.51 196.51 753 188.99 793.52 181.58 834.13 174.65 850.81 170.9 867.88 169.19 884.57 165.52 897.85 163.01 911.21 160.91 924.55 158.66 937.75 154.92 951.51 153.84 964.94 151.12 973.76 150.05 982.4 147.96 991.19 146.62 1003.13 143.8 1015.46 142.75 1027.27 139.33 1043.43 136.64 1059.62 134.12 1075.77 131.32 1087.35 129.86 1098.53 126.27 1110.13 124.86 1122.47 122.73 1134.85 120.85 1147.12 118.34 1167.78 114.45 1188.77 112.26 1209.19 107.14 1215.43 105.84 1221.81 105.37 1228.07 104.09M1147 130.83C1126.51 135.27 1105.64 137.68 1085.11 141.9 1067.13 145.69 1048.89 148.15 1030.93 152.16 1014.27 155.24 997.31 156.9 980.9 161.17 964.28 163.7 947.79 166.91 931.19 169.56 911.31 173.27 891.25 176.04 871.49 180.42 856.94 182.81 842.42 185.43 827.86 187.8 810.74 191.62 793.21 193.76 776.11 197.82 764.53 200.11 752.79 201.48 741.18 203.6 727.96 205.38 714.95 208.38 701.85 210.85 697.83 211.88 693.6 211.83 689.67 213.17 667.23 216.7 644.91 220.97 622.45 224.37 615.95 225.88 609.48 227.67 602.84 228.48 590.9 230.42 579.03 232.84 567.07 234.64 563.15 235.76 559.16 236.58 555.1 236.91 566.59 247.47 578.96 257.03 590.92 267.04 605.47 279.19 619.71 291.69 634.35 303.72 649.26 315.7 663.6 328.37 678.36 340.54 685.63 337.42 692.85 334.17 700.16 331.14 740.13 313.53 780.66 297.3 820.62 279.68 851.23 266.55 882.12 254.06 912.67 240.78 936.22 230.47 960.02 220.75 983.64 210.59 1007.65 200.81 1031.29 190.18 1055.18 180.11 1078.74 170.41 1102.12 160.31 1125.6 150.41 1146.93 140.9 1168.5 131.93 1190.19 123.26 1175.8 125.84 1161.34 127.99 1147 130.83M1190.84 140.91C1171.6 152.53 1151.65 162.91 1132.23 174.22 1109.95 186.5 1088.25 199.8 1065.82 211.81 1044.34 223.9 1023.03 236.28 1001.6 248.46 974.34 263.36 947.67 279.28 920.55 294.42 894.2 308.97 868.28 324.27 842.05 339.03 813.53 354.62 785.63 371.28 757.26 387.13 746.08 393.07 735.32 399.76 724.07 405.55 738.18 438.91 752.22 472.3 766.69 505.51 780.18 537.58 793.58 569.69 807.54 601.55 818.05 626.94 828.94 652.17 839.63 677.47 864.13 641.92 887.66 605.72 912.19 570.18 924.65 551.08 937.51 532.26 950.38 513.43 965.92 489.71 982.01 466.37 997.85 442.85 1010.36 424.39 1022.49 405.66 1035.32 387.4 1059.28 351.07 1084.05 315.3 1108.12 279.03 1118.75 263.05 1129.96 247.45 1140.29 231.27 1151.46 214.78 1162.77 198.39 1173.69 181.75 1185.52 165.04 1196.33 147.64 1208.13 130.92 1202.56 134.58 1196.61 137.61 1190.84 140.91M1133.6 159.41C1130.85 160.78 1127.83 161.46 1125.5 163.55 1104.07 172.8 1082.48 181.68 1061.09 191.03 1035.27 202.44 1009.04 212.87 983.13 224.09 965.68 231.18 948.66 239.28 931.18 246.31 912.62 254.07 894.08 261.88 875.57 269.75 853.52 279.03 831.75 288.91 809.56 297.82 782.22 309.21 755.05 320.98 727.85 332.71 712.52 338.7 697.6 345.68 682.29 351.69 678.19 368.32 674.14 384.97 669.76 401.54 667.6 408.03 666.35 414.81 664.56 421.43 654.74 458.64 645.7 496.07 636.05 533.33 658.32 490.88 682.58 449.5 705.2 407.23 706.97 403.86 708.94 400.33 712.39 398.43 729.89 388.66 747.34 378.8 764.65 368.69 785.91 356.58 807.31 344.72 828.58 332.63 860.41 313.93 893 296.57 924.79 277.8 950.96 262.97 977.34 248.51 1003.25 233.22 1024.98 221 1046.73 208.8 1068.44 196.53 1087.91 184.97 1107.81 174.12 1127.49 162.94 1129.11 162.33 1130.76 161.85 1132.46 161.45 1132.86 160.81 1133.62 160.26 1133.6 159.41M710.72 422.67C696.17 448.21 682.74 474.37 667.87 499.73 668.15 500.32 668.71 501.5 668.98 502.08 668.6 501.61 667.83 500.67 667.44 500.2 662.03 511.88 655.05 522.73 649.05 534.1 644.77 540.92 641.65 548.39 637.32 555.17 659.99 537.82 683.63 521.76 706.07 504.11 717.86 495.31 729.91 486.87 741.72 478.08 736.95 468.35 733.36 458.11 728.9 448.24 724.43 437.01 719.07 426.14 714.67 414.89 713.62 417.61 712.17 420.15 710.72 422.67zM585.64 602.48C588.99 598.52 592.89 595.06 596.18 591.05 598.8 593.69 601.44 596.35 603.7 599.32 603.72 599.65 603.75 600.32 603.76 600.66 599.65 604.65 596.39 609.77 591.04 612.24 588.68 610.18 586.17 608.28 584.09 605.94 583.24 604.52 584.94 603.48 585.64 602.48zM573.34 615.71C576.19 618.26 579.12 620.73 581.97 623.28 581.95 623.58 581.92 624.18 581.91 624.48 578.08 628.6 574.52 632.98 571.46 637.71 571.04 637.62 570.2 637.45 569.78 637.36 567.31 634.76 561.9 633.27 562.58 628.99 565.9 624.35 570.21 620.5 573.34 615.71zM183.77 631.02C189.37 628.07 195.76 627.18 201.91 626.02 202.3 626.34 203.08 626.97 203.47 627.29 203.7 630.99 204.04 634.69 204.26 638.4 198.83 639.82 193.19 640.36 187.87 642.23 185.88 638.76 184.51 634.95 183.77 631.02zM218.37 628.98C218.19 627.66 219.18 626.78 219.92 625.88 226.06 626.89 232.09 628.45 238.15 629.88 237.74 634.11 236.91 638.39 234.97 642.22 229.69 639.93 223.95 639.36 218.33 638.47 217.49 635.38 218.26 632.12 218.37 628.98zM157.12 648.06C160.81 644.44 164.78 641.09 169.12 638.27 171.62 641.34 173.38 644.92 175.84 648.02 171.15 651.63 166.62 655.41 162.36 659.53 159.92 657.25 157.28 655.18 155.05 652.69 154.44 650.81 155.92 649.26 157.12 648.06zM249.64 642.57C250.97 640.94 252.39 637.54 254.98 638.69 260.1 642.19 264.48 646.66 268.81 651.09 265.97 653.84 262.6 656 259.98 658.98 256.22 655.58 252.5 652.11 248.35 649.18 246.27 647.34 248.49 644.38 249.64 642.57zM542.03 658C545.26 652.78 548.46 647.3 553.03 643.13 556.38 644.6 559.32 646.8 562.32 648.85 558.86 654.08 555.65 659.58 551.15 664 548.15 661.94 545.11 659.94 542.03 658zM138.44 684.78C139.33 677.93 142.07 671.51 144.99 665.31 148.22 667.03 151.6 668.51 155.19 669.29 153.76 675.38 152.04 681.56 149.15 687.13 145.58 686.33 142.04 685.43 138.44 684.78zM266.98 669.3C270.63 667.85 274.34 666.46 278.24 665.81 279.8 671.88 282.29 677.76 283.02 684.02 279.74 686.01 275.39 685.56 271.72 686.69 269.69 684.64 270 681.64 269.27 679.07 268.42 675.83 267.08 672.69 266.98 669.3zM523.46 684.86C526.52 679.54 530.54 674.82 533.21 669.28 536.59 671.24 539.79 673.52 543.23 675.4 541.4 681.66 536.48 686.32 532.9 691.61 529.47 689.79 526.15 687.7 523.46 684.86zM504.47 711.47C508.32 707.26 510.87 702.01 515.02 698.06L515.99 697.82C519.1 699.79 523.15 701.26 524.79 704.78 520.73 709.07 518.19 714.57 513.83 718.61 510.76 716.2 506.75 714.66 504.47 711.47zM137.2 700.04C140.97 700.68 144.81 700.43 148.6 700.86 148.64 706.11 148.29 711.37 149.11 716.59 143.85 716.33 138.61 715.76 133.35 715.44 133.04 711.83 132.41 707.98 133.39 704.47 134.08 704.27 135.46 703.88 136.14 703.68 136.5 702.46 136.86 701.24 137.2 700.04zM273.35 700.87C277.36 700.43 281.29 699.36 285.35 699.33 286.38 704.9 287.48 710.47 288.01 716.11 288.57 717.95 286.09 717.88 285 718.17 282.05 718.67 279.07 718.95 276.1 719.31 275.37 713.14 275.06 706.88 273.35 700.87zM98.76 710.99C105.06 708.99 111.15 706.28 117.72 705.21 118.48 709.38 119.74 713.57 119.37 717.86 113.67 717.92 108.57 720.39 103.31 722.21 102.19 718.29 99.41 715.05 98.76 710.99zM71.95 733.1C74.99 727.63 80.05 723.43 84.86 719.47 86.97 722.31 89.58 724.72 91.91 727.37 92.49 728.71 91.3 729.64 90.46 730.46 86.89 733.94 83.19 737.3 79.95 741.1 77.16 738.69 72.64 737.07 71.95 733.1zM484.35 736.88C488.42 732.44 492.08 727.65 496.03 723.11 499.08 725.39 501.93 727.94 505.14 730 501.93 735.51 497.52 740.19 493.26 744.88 490.45 742.1 485.73 740.73 484.35 736.88zM278.1 734.98C278.13 733.6 279.83 733.53 280.81 733.31 283.61 732.91 286.45 732.87 289.27 732.66 290.55 738.97 290.92 745.44 290.94 751.87 286.95 751.92 283 752.49 279.02 752.43 278.6 746.62 278.47 740.79 278.1 734.98zM57.28 766.47C56.93 759.63 60.1 753.43 62.99 747.47 66.61 748.63 69.78 751.37 73.71 751.37 71.6 757.09 69.9 763 67.6 768.63 64.05 768.9 60.72 767.12 57.28 766.47zM461.94 758.62C466.53 755.55 470.31 751.46 474.16 747.55 477.49 749.97 480.86 752.89 482.32 756.86 477.55 760.26 474.11 765.25 468.99 768.23 465.94 765.75 462.44 762.7 461.94 758.62zM283.11 766.8C285.47 766.41 287.87 766.48 290.26 766.47 290.71 766.92 291.6 767.83 292.04 768.28 291.69 774.18 292.43 780.14 291.45 786.01 287.75 786.03 284.06 786.05 280.37 785.91 279.37 780.29 280.17 774.58 279.59 768.93 279.21 766.9 281.86 767.09 283.11 766.8zM436.12 779.98C441 776.24 445.66 772.14 451.05 769.12 453.1 771.71 455.14 774.34 456.84 777.19 457.98 780.01 454.26 781.11 452.67 782.71 449.2 784.81 446.1 788.61 441.97 788.95 439.66 786.22 437.75 783.16 436.12 779.98zM53.97 781.52C57.71 781.59 61.45 781.82 65.19 781.53 66.23 786.95 66.81 792.45 68.1 797.83 65.43 799.12 62.74 800.39 59.89 801.22 58.61 801.94 56.68 801.13 56.54 799.6 54.86 793.74 53.17 787.67 53.97 781.52zM409.15 798.92C412.39 793.51 419.43 792.16 423.76 787.74 425.48 791.08 428.48 793.65 429.93 797.12 430.67 798.6 428.56 799.05 427.73 799.75 423.02 802.22 419.01 805.98 413.9 807.64 412.28 804.75 410.82 801.77 409.15 798.92zM279.28 800.2C283.21 800.16 287.14 800.41 291.07 800.73 291.09 806.75 290.4 812.76 289.66 818.73 285.94 820.81 281.91 819.12 277.99 818.87 278.16 812.63 278.39 806.38 279.28 800.2zM379.8 812.61C385.21 810.12 390.23 806.7 395.94 804.91 398.89 807.58 399.99 811.97 401.23 815.72 395.94 818.05 390.81 820.66 385.88 823.69 385.66 823.66 385.2 823.59 384.97 823.56 383.41 819.83 380.62 816.61 379.8 812.61zM65.84 816.82C67.71 813.16 71.67 810.95 75.18 809.02 78.34 813.2 82.75 816.19 85.89 820.38 86.2 824.56 81.53 826.96 79.61 830.29 77 828.64 75.24 825.97 72.52 824.49 70.9 821.43 67.76 819.65 65.84 816.82zM350.16 826.23C355.74 823.69 361.46 821.49 366.9 818.68 368.58 822.32 370.52 825.95 371.03 829.98 370.42 831.4 368.49 831.53 367.26 832.23 362.74 833.63 358.67 836.21 354.04 837.22 352.9 833.5 350.8 830.11 350.16 826.23zM93.03 839.37C93.81 835.36 95.65 831.64 98.99 829.18 104.05 831.68 109.31 833.91 114.06 836.98 113.36 840.57 110.97 843.72 109.97 847.3 103.95 845.64 98.54 842.24 93.03 839.37zM333.88 832.46C334.99 832.32 336.33 831.65 337.37 832.27 338.55 835.7 339.51 839.22 340.19 842.79 334.26 844.94 328.33 847.21 322.07 848.21 321.26 844.4 320.38 840.6 319.82 836.76 324.57 835.53 329.16 833.8 333.88 832.46zM275.82 832.89C279.62 833.27 283.44 833.6 287.12 834.67 287.05 840.96 285.26 847.03 283.96 853.14 280.88 852.79 277.78 852.51 274.7 852.22 275.3 854.68 276.21 857.24 275.74 859.82 269.79 861.04 263.8 862.23 257.77 863.11 256.33 859.3 255.55 855.24 255.57 851.16 261.13 849.43 266.99 849.17 272.73 848.37 274.1 843.27 274.73 838.04 275.82 832.89zM127.28 842.51C133.17 841.53 138.53 845.9 144.43 846.23 144.48 850.16 142.94 853.87 142.46 857.75 136.01 857.3 129.86 854.89 123.8 852.8 124.46 849.26 125.04 845.42 127.28 842.51zM287.83 845.74C293.69 843.88 299.55 841.68 305.76 841.32 306.21 845.25 307.86 848.86 308.85 852.66 302.83 854.19 296.75 855.53 290.68 856.82 289.4 853.22 287.82 849.64 287.83 845.74zM158.14 849.39C164.04 849.86 169.85 851.11 175.76 851.57 176.06 851.96 176.66 852.73 176.95 853.11 175.65 856.46 176.11 860.15 175.43 863.64 169.07 863.44 162.77 862.41 156.46 861.85 157.06 857.7 157.64 853.55 158.14 849.39zM223.55 853.5C229.29 852.86 235.08 852.78 240.84 852.36 241.93 856.06 242.37 859.91 242.67 863.76 236.5 865.37 230.15 865.73 223.82 866.09 223.13 861.94 222.46 857.65 223.55 853.5zM190.07 860.96C190.57 858.29 189.58 855.43 190.76 852.93 196.68 853.66 202.66 853.45 208.61 853.48 209.06 857.25 209.24 861.05 209.65 864.84 203.85 866.79 197.71 865.75 191.76 865.3 189.33 865.3 190.01 862.52 190.07 860.96zM266.71 870.75C267.43 868.86 267.94 866.49 269.9 865.51 273.41 865.53 276.65 867.22 280 868.13 278.92 873.91 276.92 879.43 274.71 884.86 274.17 886.03 272.59 885.98 271.52 885.77 268.4 885.06 265.56 883.49 262.76 882 263.79 878.16 265.56 874.56 266.71 870.75zM256.58 896.25C256.91 896.02 257.56 895.56 257.89 895.33 261.06 897.21 265.44 897.84 267.66 900.86 265.77 906.43 262.16 911.19 259.58 916.44 255.23 917.54 252.52 913.57 248.82 912.35 250.57 906.61 253.98 901.61 256.58 896.25zM235.78 928.77C237.33 926.94 238.71 924.57 241.13 923.85 244.52 925.13 246.99 927.96 249.83 930.12 245.76 935.22 241.96 940.63 236.75 944.67 234.19 942.1 231.66 939.53 229.17 936.91 230.58 933.58 233.78 931.67 235.78 928.77zM204.19 955.88C208.94 952.66 213.62 949.33 218.24 945.92 220.56 949.13 223.92 951.5 225.83 955.01 220.67 959.32 215.59 964.03 208.98 965.97 206.89 962.86 205.29 959.45 204.19 955.88zM174.61 969.24C180.5 968.06 185.78 964.99 191.41 963 193.49 966.43 194.68 970.28 196.21 973.96 190.35 976.31 184.63 979.4 178.38 980.56 176.53 977.05 174.81 973.25 174.61 969.24zM142.94 977.13C149.11 976.35 155.14 974.72 161.31 973.9 162.21 977.64 162.74 981.47 163.19 985.3 157.22 986.54 151.19 987.73 145.46 989.85 144.15 985.71 143.63 981.4 142.94 977.13zM109.96 982.32C116.16 981.17 122.4 979.81 128.75 979.99 129.15 983.73 129.91 987.43 130.15 991.19 124.06 992.62 117.8 992.94 111.6 993.68 110.89 989.92 110.42 986.11 109.96 982.32zM76.51 984.17C77.47 982.57 79.47 983.46 80.94 983.28 85.62 983.33 90.27 982.71 94.93 982.49 96.25 986.17 96.49 990.15 97.14 994 90.69 994.98 84.09 995.98 77.57 995.48 77.34 991.69 76.53 987.96 76.51 984.17zM46.64 984.59C51.72 984.59 56.8 984 61.87 984.47 62.18 988.46 63.19 992.45 62.61 996.48 57.55 996.74 52.43 996.36 47.42 997.3 46.55 997.2 44.81 997.01 43.94 996.92 43.53 993.3 43.22 989.67 43.09 986.05 43.09 984.16 45.46 984.73 46.64 984.59zM9.08 986.07C15 984.42 21.16 985.13 27.22 984.94 30.16 988.23 28.78 992.8 28.39 996.75 22.49 997.87 16.11 997.29 10.02 997.53 9.99 995.61 9.96 993.71 9.87 991.82 8.92 990.04 8.99 988.01 9.08 986.07z" fill="#989898" class="color000 svgShape"></path></svg></g></svg>